<?xml version="1.0" encoding="UTF-8" standalone="no"?>
<!-- Generator: Adobe Illustrator 19.2.1, SVG Export Plug-In . SVG Version: 6.00 Build 0)  -->

<svg
   xmlns:dc="http://purl.org/dc/elements/1.1/"
   xmlns:cc="http://creativecommons.org/ns#"
   xmlns:rdf="http://www.w3.org/1999/02/22-rdf-syntax-ns#"
   xmlns:svg="http://www.w3.org/2000/svg"
   xmlns="http://www.w3.org/2000/svg"
   xmlns:sodipodi="http://sodipodi.sourceforge.net/DTD/sodipodi-0.dtd"
   xmlns:inkscape="http://www.inkscape.org/namespaces/inkscape"
   version="1.1"
   id="Layer_1"
   x="0px"
   y="0px"
   width="58.832001"
   height="53.255196"
   viewBox="0 0 58.832004 53.255192"
   enable-background="new 0 0 937.331 665.577"
   xml:space="preserve"
   sodipodi:docname="hidden-sun.svg"
   inkscape:version="0.92.4 (5da689c313, 2019-01-14)"><metadata
   id="metadata191"><rdf:RDF><cc:Work
       rdf:about=""><dc:format>image/svg+xml</dc:format><dc:type
         rdf:resource="http://purl.org/dc/dcmitype/StillImage" /><dc:title></dc:title></cc:Work></rdf:RDF></metadata><defs
   id="defs189" /><sodipodi:namedview
   pagecolor="#ffffff"
   bordercolor="#666666"
   borderopacity="1"
   objecttolerance="10"
   gridtolerance="10"
   guidetolerance="10"
   inkscape:pageopacity="0"
   inkscape:pageshadow="2"
   inkscape:window-width="1920"
   inkscape:window-height="1137"
   id="namedview187"
   showgrid="false"
   inkscape:zoom="1.3570446"
   inkscape:cx="-212.05421"
   inkscape:cy="-39.890781"
   inkscape:window-x="-8"
   inkscape:window-y="-8"
   inkscape:window-maximized="1"
   inkscape:current-layer="Layer_1" />













<path stroke="hsl(344, 71%, 95%)" fill="hsl(344, 71%, 95%)"
   d="M 51.977,37.193196 H 0.856 c -0.471,0 -0.856,-0.385 -0.856,-0.856 0,-0.471 0.386,-0.856 0.856,-0.856 h 51.121 c 0.471,0 0.855,0.385 0.855,0.856 0,0.471 -0.385,0.856 -0.855,0.856"
   id="path28"
   inkscape:connector-curvature="0" />
<path stroke="hsl(344, 71%, 95%)" fill="hsl(344, 71%, 95%)"
   d="M 57.977,45.224196 H 10.856 c -0.471,0 -0.856,-0.385 -0.856,-0.856 0,-0.471 0.386,-0.856 0.856,-0.856 h 47.121 c 0.471,0 0.855,0.385 0.855,0.856 0,0.471 -0.385,0.856 -0.855,0.856"
   id="path30"
   inkscape:connector-curvature="0" />


<path stroke="hsl(344, 71%, 95%)" fill="hsl(344, 71%, 95%)"
   d="M 37.522,53.255196 H 22.401 c -0.472,0 -0.857,-0.385 -0.857,-0.856 0,-0.471 0.385,-0.856 0.857,-0.856 h 15.121 c 0.471,0 0.855,0.385 0.855,0.856 0,0.472 -0.385,0.856 -0.855,0.856"
   id="path36"
   inkscape:connector-curvature="0" />











<path stroke="hsl(344, 71%, 95%)" fill="hsl(344, 71%, 95%)"
   d="m 48.38,8.0681961 c -10.357,-10.357 -26.927,-10.716 -37.807,-1.231 l 1.228,1.259 c 4.864,-4.201 10.909,-6.315 16.972,-6.315 6.662,0 13.324,2.418 18.396,7.49 5.908,5.9079999 8.368,14.5659999 7.394,21.5659999 h 1.725 c 0.964,-8 -1.666,-16.527 -7.908,-22.7689999"
   id="path60"
   inkscape:connector-curvature="0" />
<path stroke="hsl(344, 71%, 95%)" fill="hsl(344, 71%, 95%)"
   d="M 9.047,10.768196 7.816,9.4761961 C 2.556,15.545196 0.372,23.837196 1.258,30.837196 h 1.73 c -0.883,-7 1.14,-14.335 6.059,-20.069"
   id="path62"
   inkscape:connector-curvature="0" />





























































</svg>