<?xml version="1.0" encoding="UTF-8" standalone="no"?>
<!-- Generator: Adobe Illustrator 19.2.1, SVG Export Plug-In . SVG Version: 6.00 Build 0)  -->

<svg
   xmlns:dc="http://purl.org/dc/elements/1.1/"
   xmlns:cc="http://creativecommons.org/ns#"
   xmlns:rdf="http://www.w3.org/1999/02/22-rdf-syntax-ns#"
   xmlns:svg="http://www.w3.org/2000/svg"
   xmlns="http://www.w3.org/2000/svg"
   xmlns:sodipodi="http://sodipodi.sourceforge.net/DTD/sodipodi-0.dtd"
   xmlns:inkscape="http://www.inkscape.org/namespaces/inkscape"
   version="1.1"
   id="Layer_1"
   x="0px"
   y="0px"
   width="104.13165"
   height="86.266113"
   viewBox="0 0 104.13166 86.266107"
   enable-background="new 0 0 937.331 665.577"
   xml:space="preserve"
   sodipodi:docname="rainy.svg"
   inkscape:version="0.92.4 (5da689c313, 2019-01-14)"><metadata
   id="metadata191"><rdf:RDF><cc:Work
       rdf:about=""><dc:format>image/svg+xml</dc:format><dc:type
         rdf:resource="http://purl.org/dc/dcmitype/StillImage" /><dc:title></dc:title></cc:Work></rdf:RDF></metadata><defs
   id="defs189" /><sodipodi:namedview
   pagecolor="#ffffff"
   bordercolor="#666666"
   borderopacity="1"
   objecttolerance="10"
   gridtolerance="10"
   guidetolerance="10"
   inkscape:pageopacity="0"
   inkscape:pageshadow="2"
   inkscape:window-width="1920"
   inkscape:window-height="1137"
   id="namedview187"
   showgrid="false"
   inkscape:zoom="1.3570446"
   inkscape:cx="482.53243"
   inkscape:cy="134.31222"
   inkscape:window-x="-8"
   inkscape:window-y="-8"
   inkscape:window-maximized="1"
   inkscape:current-layer="Layer_1" />


















































<path stroke="hsl(344, 71%, 95%)" fill="hsl(344, 71%, 95%)"
   d="m 41.696653,7.1391168 c -9.127,-9.127 -23.729,-9.498 -33.3170002,-1.14 l 1.082,1.082 c 4.2860002,-3.702 9.6140002,-5.579 14.9570002,-5.579 5.87,0 11.741,2.235 16.211,6.704 1.623,1.624 2.948,3.4330002 3.981,5.3590002 l 1.066,-1.187 c -1.061,-1.875 -2.384,-3.6420002 -3.98,-5.2390002"
   id="path102"
   inkscape:connector-curvature="0" />
<path stroke="hsl(344, 71%, 95%)" fill="hsl(344, 71%, 95%)"
   d="m 8.2066528,40.630117 c -8.51900001,-8.519 -8.89100001,-22.113 -1.172,-31.1110002 l -1.084,-1.084 c -8.309,9.5890002 -7.92,24.1530002 1.189,33.2620002 2.249,2.249 4.8340002,3.961 7.5920002,5.148 l 1.063,-1.184 c -2.763,-1.117 -5.351,-2.794 -7.5880002,-5.031"
   id="path104"
   inkscape:connector-curvature="0" />




<path stroke="hsl(344, 71%, 95%)" fill="hsl(344, 71%, 95%)"
   d="m 49.746653,25.184117 c 0,-5.571 2.727,-11.717 7.294,-14.953 0.426,-0.3020002 0.881,-0.5930002 1.352,-0.8640002 2.62,-1.513 5.592,-2.312 8.595,-2.312 8.943,0 16.49,6.9790002 17.183,15.8870002 l 0.109,0.847 0.845,-0.03 c 9.342,0.004 17.232997,8.2 17.232997,17.901 0,9.703 -7.895997,17.901 -17.240997,17.901 -3.923,0 -7.312,-1.152 -10.073,-3.608 l -0.253,-0.131 h -0.899 l -0.334,0.165 c -1.706,1.324 -5.256,4.032 -10.896,4.032 -4.143,0 -6.995,-1.335 -10.523,-4.864 l -0.613,-0.624 -0.627,0.592 c -3.052,2.912 -7.015,4.448 -11.461,4.448 -9.507,0 -17.241,-7.692 -17.241,-17.144 0,-2.647 0.603,-5.211 1.792,-7.618 0.212,-0.428 0.446,-0.856 0.696,-1.27 3.159,-5.231 8.511,-8.355 14.591,-8.355 1.479,0 3.19,0.198 4.19,0.567 v -1.836 c -1,-0.334 -2.716,-0.506 -4.19,-0.506 -6.707,0 -12.709,3.444 -16.191,9.212 -0.276,0.457 -0.494,0.929 -0.728,1.402 -1.311,2.653 -1.955,5.479 -1.955,8.402 0,10.431 8.541,18.918 19.026,18.918 4.611,0 8.764,-1.506 12.058,-4.365 3.602,3.42 6.799,4.769 11.173,4.769 5.885,0 9.667,-2.668 11.642,-4.185 2.982,2.471 6.709,3.774 10.815,3.774 10.307,0 19.015997,-9.01 19.015997,-19.676 0,-10.408 -8.291997,-19.24 -18.271997,-19.66 -1.142,-9.439 -9.279,-16.7190002 -18.872,-16.7190002 -3.314,0 -6.593,0.881 -9.482,2.548 -0.518,0.299 -1.02,0.619 -1.491,0.954 -5.036,3.5680002 -8.043,10.2550002 -8.043,16.4010002 0,0.027 0.003,0 0.003,0.027"
   id="path114"
   inkscape:connector-curvature="0" />
<path stroke="hsl(344, 71%, 95%)" fill="hsl(344, 71%, 95%)"
   d="m 35.491653,79.491117 c -0.149,0 -0.301,-0.033 -0.443,-0.104 -0.495,-0.246 -0.697,-0.846 -0.452,-1.34 l 4.737,-9.552 c 0.246,-0.494 0.845,-0.696 1.34,-0.451 0.495,0.245 0.697,0.845 0.452,1.34 l -4.737,9.551 c -0.175,0.351 -0.529,0.556 -0.897,0.556"
   id="path116"
   inkscape:connector-curvature="0" />
<path stroke="hsl(344, 71%, 95%)" fill="hsl(344, 71%, 95%)"
   d="m 51.556653,79.491117 c -0.149,0 -0.301,-0.033 -0.443,-0.104 -0.495,-0.246 -0.697,-0.846 -0.452,-1.34 l 4.737,-9.552 c 0.246,-0.494 0.846,-0.696 1.34,-0.451 0.495,0.245 0.697,0.845 0.452,1.34 l -4.737,9.551 c -0.175,0.351 -0.529,0.556 -0.897,0.556"
   id="path118"
   inkscape:connector-curvature="0" />
<path stroke="hsl(344, 71%, 95%)" fill="hsl(344, 71%, 95%)"
   d="m 67.556653,79.491117 c -0.149,0 -0.301,-0.033 -0.443,-0.104 -0.495,-0.246 -0.697,-0.846 -0.452,-1.34 l 4.737,-9.552 c 0.245,-0.494 0.846,-0.696 1.34,-0.451 0.495,0.245 0.697,0.845 0.452,1.34 l -4.737,9.551 c -0.175,0.351 -0.529,0.556 -0.897,0.556"
   id="path120"
   inkscape:connector-curvature="0" />
<path stroke="hsl(344, 71%, 95%)" fill="hsl(344, 71%, 95%)"
   d="m 40.208653,86.266117 c -0.149,0 -0.3,-0.033 -0.443,-0.104 -0.495,-0.246 -0.697,-0.845 -0.452,-1.34 l 5.736,-11.552 c 0.246,-0.495 0.845,-0.696 1.341,-0.452 0.494,0.246 0.696,0.845 0.451,1.341 l -5.736,11.551 c -0.175,0.352 -0.529,0.556 -0.897,0.556"
   id="path122"
   inkscape:connector-curvature="0" />
<path stroke="hsl(344, 71%, 95%)" fill="hsl(344, 71%, 95%)"
   d="m 72.360653,86.266117 c -0.149,0 -0.3,-0.033 -0.443,-0.104 -0.495,-0.246 -0.697,-0.846 -0.452,-1.34 l 5.737,-11.552 c 0.245,-0.495 0.845,-0.696 1.34,-0.452 0.495,0.246 0.697,0.846 0.452,1.341 l -5.737,11.551 c -0.175,0.352 -0.529,0.556 -0.897,0.556"
   id="path124"
   inkscape:connector-curvature="0" />
<path stroke="hsl(344, 71%, 95%)" fill="hsl(344, 71%, 95%)"
   d="m 56.284653,86.266117 c -0.149,0 -0.3,-0.033 -0.443,-0.104 -0.495,-0.246 -0.697,-0.846 -0.452,-1.34 l 5.737,-11.552 c 0.246,-0.495 0.845,-0.696 1.34,-0.452 0.495,0.246 0.697,0.846 0.452,1.341 l -5.737,11.551 c -0.175,0.352 -0.529,0.556 -0.897,0.556"
   id="path126"
   inkscape:connector-curvature="0" />
<path stroke="hsl(344, 71%, 95%)" fill="hsl(344, 71%, 95%)"
   d="m 83.556653,79.491117 c -0.149,0 -0.301,-0.033 -0.443,-0.104 -0.495,-0.246 -0.697,-0.846 -0.452,-1.34 l 4.737,-9.552 c 0.246,-0.494 0.845,-0.696 1.34,-0.451 0.495,0.245 0.697,0.845 0.452,1.34 l -4.737,9.551 c -0.175,0.351 -0.529,0.556 -0.897,0.556"
   id="path128"
   inkscape:connector-curvature="0" />




























</svg>