<?xml version="1.0" encoding="UTF-8" standalone="no"?>
<svg
   xmlns:dc="http://purl.org/dc/elements/1.1/"
   xmlns:cc="http://creativecommons.org/ns#"
   xmlns:rdf="http://www.w3.org/1999/02/22-rdf-syntax-ns#"
   xmlns:svg="http://www.w3.org/2000/svg"
   xmlns="http://www.w3.org/2000/svg"
   xml:space="preserve"
   enable-background="new 0 0 937.331 665.577"
   viewBox="0 0 83.730009 80.984994"
   height="80.985001"
   width="83.730003"
   y="0px"
   x="0px"
   id="Layer_1"
   version="1.1"><metadata
   id="metadata191"><rdf:RDF><cc:Work
       rdf:about=""><dc:format>image/svg+xml</dc:format><dc:type
         rdf:resource="http://purl.org/dc/dcmitype/StillImage" /><dc:title></dc:title></cc:Work></rdf:RDF></metadata><defs
   id="defs189" />




















































<path stroke="hsl(344, 71%, 95%)" fill="hsl(344, 71%, 95%)"
   id="path106"
   d="m 15.09,74.21 c -0.149,0 -0.301,-0.033 -0.443,-0.104 -0.495,-0.246 -0.697,-0.846 -0.452,-1.34 l 4.737,-9.552 c 0.246,-0.494 0.845,-0.696 1.34,-0.451 0.495,0.245 0.697,0.845 0.452,1.34 l -4.737,9.551 c -0.175,0.352 -0.529,0.556 -0.897,0.556" />
<path stroke="hsl(344, 71%, 95%)" fill="hsl(344, 71%, 95%)"
   id="path108"
   d="m 19.807,80.985 c -0.149,0 -0.3,-0.033 -0.443,-0.104 -0.495,-0.245 -0.697,-0.845 -0.452,-1.34 l 5.736,-11.552 c 0.246,-0.495 0.845,-0.696 1.341,-0.452 0.494,0.246 0.696,0.846 0.451,1.341 L 20.704,80.43 c -0.175,0.351 -0.529,0.555 -0.897,0.555" />
<path stroke="hsl(344, 71%, 95%)" fill="hsl(344, 71%, 95%)"
   id="path110"
   d="m 51.959,80.985 c -0.149,0 -0.3,-0.033 -0.443,-0.104 -0.495,-0.245 -0.697,-0.846 -0.452,-1.34 l 5.737,-11.552 c 0.245,-0.495 0.845,-0.696 1.34,-0.452 0.495,0.246 0.697,0.847 0.452,1.341 L 52.856,80.43 c -0.175,0.351 -0.529,0.555 -0.897,0.555" />
<path stroke="hsl(344, 71%, 95%)" fill="hsl(344, 71%, 95%)"
   id="path112"
   d="m 63.155,74.21 c -0.149,0 -0.301,-0.033 -0.443,-0.104 -0.495,-0.246 -0.697,-0.846 -0.452,-1.34 l 4.737,-9.552 c 0.246,-0.494 0.845,-0.696 1.34,-0.451 0.495,0.245 0.697,0.845 0.452,1.34 l -4.737,9.551 c -0.175,0.352 -0.529,0.556 -0.897,0.556" />













<path stroke="hsl(344, 71%, 95%)" fill="hsl(344, 71%, 95%)"
   id="path140"
   d="M 65.458,16.719 C 64.316,7.28 56.179,0 46.586,0 43.272,0 39.993,0.881 37.104,2.549 36.585,2.847 36.083,3.168 35.613,3.502 30.577,7.07 27.57,13.757 27.57,19.903 c 0,0.028 0.002,0 0.003,0.028 l 1.772,-0.028 c 0,-5.571 2.727,-11.717 7.294,-14.953 0.426,-0.302 0.88,-0.593 1.352,-0.864 2.619,-1.512 5.592,-2.311 8.595,-2.311 8.943,0 16.49,6.978 17.182,15.886 l 0.109,0.847 0.845,-0.03 c 9.343,0.004 17.233,8.2 17.233,17.901 0,9.704 -7.895,17.9 -17.24,17.9 -3.923,0 -6.839,-1.071 -9.381,-2.946 l -0.27,0.208 -1,0.865 c 2.955,2.386 6.618,3.648 10.65,3.648 10.307,0 19.016,-9.01 19.016,-19.676 0,-10.407 -8.292,-19.239 -18.272,-19.659" />
<path stroke="hsl(344, 71%, 95%)" fill="hsl(344, 71%, 95%)"
   id="path142"
   d="m 30.497,49.842 c -3.051,2.912 -7.015,4.448 -11.461,4.448 -9.507,0 -17.241,-7.692 -17.241,-17.143 0,-2.647 0.603,-5.211 1.792,-7.619 0.212,-0.429 0.446,-0.856 0.696,-1.27 3.159,-5.232 8.512,-8.355 14.591,-8.355 1.479,0 3.19,0.198 4.19,0.567 v -1.836 c -1,-0.334 -2.715,-0.506 -4.19,-0.506 -6.706,0 -12.708,3.444 -16.191,9.212 C 2.407,27.797 2.189,28.269 1.956,28.742 0.645,31.395 0,34.222 0,37.144 c 0,10.431 8.541,18.918 19.026,18.918 4.602,0 8.747,-1.502 12.038,-4.35 z" />
<path stroke="hsl(344, 71%, 95%)" fill="hsl(344, 71%, 95%)"
   style="fill:none;stroke-width:2;stroke-miterlimit:10"
   id="path144"
   d="M 45.281,39.036 32.361,59.67 c -0.129,0.189 0.011,0.444 0.24,0.435 l 9.581,-0.422 c 0.203,-0.009 0.347,0.196 0.27,0.384 L 36.36,77.093 c -0.127,0.307 0.293,0.537 0.484,0.265 L 50.86,55.166 c 0.13,-0.184 -0.002,-0.437 -0.227,-0.437 h -9.084 c -0.184,0 -0.316,-0.173 -0.268,-0.349 l 4.498,-15.114 c 0.079,-0.303 -0.321,-0.486 -0.498,-0.23"
   stroke-miterlimit="10" />




















</svg>