<?xml version="1.0" encoding="UTF-8" standalone="no"?>
<!-- Generator: Adobe Illustrator 19.2.1, SVG Export Plug-In . SVG Version: 6.00 Build 0)  -->

<svg
   xmlns:dc="http://purl.org/dc/elements/1.1/"
   xmlns:cc="http://creativecommons.org/ns#"
   xmlns:rdf="http://www.w3.org/1999/02/22-rdf-syntax-ns#"
   xmlns:svg="http://www.w3.org/2000/svg"
   xmlns="http://www.w3.org/2000/svg"
   xmlns:sodipodi="http://sodipodi.sourceforge.net/DTD/sodipodi-0.dtd"
   xmlns:inkscape="http://www.inkscape.org/namespaces/inkscape"
   version="1.1"
   id="Layer_1"
   x="0px"
   y="0px"
   width="127.60912"
   height="93.022003"
   viewBox="0 0 127.60913 93.021997"
   enable-background="new 0 0 937.331 665.577"
   xml:space="preserve"
   sodipodi:docname="cloudy-sun.svg"
   inkscape:version="0.92.4 (5da689c313, 2019-01-14)"><metadata
   id="metadata191"><rdf:RDF><cc:Work
       rdf:about=""><dc:format>image/svg+xml</dc:format><dc:type
         rdf:resource="http://purl.org/dc/dcmitype/StillImage" /><dc:title></dc:title></cc:Work></rdf:RDF></metadata><defs
   id="defs189" /><sodipodi:namedview
   pagecolor="#ffffff"
   bordercolor="#666666"
   borderopacity="1"
   objecttolerance="10"
   gridtolerance="10"
   guidetolerance="10"
   inkscape:pageopacity="0"
   inkscape:pageshadow="2"
   inkscape:window-width="1920"
   inkscape:window-height="1137"
   id="namedview187"
   showgrid="false"
   inkscape:zoom="1.3570446"
   inkscape:cx="48.655902"
   inkscape:cy="-19.057778"
   inkscape:window-x="-8"
   inkscape:window-y="-8"
   inkscape:window-maximized="1"
   inkscape:current-layer="Layer_1" />










<path
   d="m 70.928125,54.914 c 0,-5.807 2.842,-12.212 7.603,-15.585 0.444,-0.315 0.918,-0.618 1.408,-0.901 2.731,-1.576 5.829,-2.408 8.958,-2.408 9.321,0 17.187985,7.273 17.908985,16.557 l 0.114,0.883 0.88,-0.031 c 9.738,0.004 17.961,8.546 17.961,18.657 0,10.113 -8.229,18.658 -17.969,18.658 -4.089,0 -7.621,-1.15 -10.498985,-3.71 l -0.263,-0.086 h -0.938 l -0.348,0.121 c -1.778,1.38 -5.48,4.177 -11.358,4.177 -4.316,0 -7.29,-1.404 -10.967,-5.082 l -0.639,-0.657 -0.654,0.614 c -3.18,3.035 -7.311,4.634 -11.944,4.634 -9.909,0 -17.97,-8.017 -17.97,-17.869 0,-2.759 0.629,-5.431 1.868,-7.939 0.221,-0.447 0.464,-0.893 0.725,-1.325 3.292,-5.452 8.975,-8.708 15.311,-8.708 1.542,0 3.471,0.207 4.471,0.591 v -1.913 c -1,-0.347 -2.934,-0.527 -4.471,-0.527 -6.989,0 -13.297,3.59 -16.927,9.601 -0.288,0.476 -0.54,0.968 -0.784,1.461 -1.366,2.766 -2.051,5.712 -2.051,8.758 0,10.871 8.895,19.717 19.823,19.717 4.806,0 9.131,-1.57 12.565,-4.549 3.755,3.564 7.085,4.969 11.644,4.969 6.134,0 10.074,-2.78 12.133,-4.361 3.109,2.576 6.992985,3.933 11.271985,3.933 10.743,0 19.818,-9.391 19.818,-20.507 0,-10.848 -8.643,-20.053 -19.044,-20.491 -1.189,-9.837 -9.670985,-17.425 -19.669985,-17.425 -3.454,0 -6.871,0.918 -9.882,2.656 -0.541,0.311 -1.063,0.645 -1.554,0.994 -5.249,3.719 -8.383,10.689 -8.383,17.094 0,0.028 0.003,0 0.003,0.028"
   id="path22"
   inkscape:connector-curvature="0" />






















<path
   d="m 71.311125,23.021 4.984,-4.985 c 0.345,-0.344 0.345,-0.902 0,-1.246 -0.344,-0.344 -0.901,-0.344 -1.246,0 l -4.984,4.985 c -0.345,0.344 -0.345,0.902 0,1.246 0.343,0.344 0.901,0.344 1.246,0"
   id="path68"
   inkscape:connector-curvature="0" />
<path
   d="M 12.365125,46.082 0.85012467,46.328 c -0.48,0.017 -0.858,0.416 -0.84999999981,0.897 0.009,0.492 0.41999999981,0.882 0.91199999981,0.865 L 12.427125,47.843 c 0.48,-0.016 0.858,-0.415 0.85,-0.896 -0.008,-0.492 -0.419,-0.882 -0.912,-0.865"
   id="path70"
   inkscape:connector-curvature="0" />
<path
   d="m 46.589125,13.278 c 0.487,0 1,-0.395 1,-0.881 V 0.881 c 0,-0.487 -0.513,-0.881 -1,-0.881 -0.487,0 -1,0.394 -1,0.881 v 11.516 c 0,0.486 0.513,0.881 1,0.881"
   id="path72"
   inkscape:connector-curvature="0" />
<path
   d="m 23.019125,70.067 c -0.344,-0.344 -0.902,-0.344 -1.246,0 l -4.985,4.985 c -0.345,0.344 -0.345,0.902 0,1.247 0.344,0.344 0.902,0.344 1.246,0 l 4.985,-4.986 c 0.343,-0.344 0.343,-0.902 0,-1.246"
   id="path74"
   inkscape:connector-curvature="0" />
<path
   d="m 21.772125,23.021 c 0.344,0.344 0.902,0.344 1.246,0 0.344,-0.344 0.344,-0.902 0,-1.246 l -4.985,-4.985 c -0.344,-0.344 -0.902,-0.344 -1.246,0 -0.344,0.344 -0.344,0.902 0,1.246 z"
   id="path76"
   inkscape:connector-curvature="0" />
<path
   d="m 63.820125,29.265 c -9.127,-9.127 -23.729,-9.498 -33.317,-1.14 l 1.082,1.082 c 4.286,-3.702 9.614,-5.579 14.957,-5.579 5.87,0 11.741,2.235 16.211,6.704 1.623,1.624 2.948,3.433 3.98,5.359 l 1.066,-1.187 c -1.06,-1.875 -2.383,-3.642 -3.979,-5.239"
   id="path78"
   inkscape:connector-curvature="0" />
<path
   d="m 30.330125,62.756 c -8.519,-8.519 -8.891,-22.113 -1.172,-31.111 l -1.084,-1.084 c -8.309,9.589 -7.92,24.153 1.189,33.262 2.249,2.249 4.834,3.961 7.592,5.148 l 1.063,-1.184 c -2.763,-1.117 -5.351,-2.794 -7.588,-5.031"
   id="path80"
   inkscape:connector-curvature="0" />




















































</svg>