<?xml version="1.0" encoding="UTF-8" standalone="no"?>
<svg
   xmlns:dc="http://purl.org/dc/elements/1.1/"
   xmlns:cc="http://creativecommons.org/ns#"
   xmlns:rdf="http://www.w3.org/1999/02/22-rdf-syntax-ns#"
   xmlns:svg="http://www.w3.org/2000/svg"
   xmlns="http://www.w3.org/2000/svg"
   xml:space="preserve"
   enable-background="new 0 0 937.331 665.577"
   viewBox="0 0 112.81284 70.442141"
   height="70.442146"
   width="112.81283"
   y="0px"
   x="0px"
   id="Layer_1"
   version="1.1"><metadata
   id="metadata191"><rdf:RDF><cc:Work
       rdf:about=""><dc:format>image/svg+xml</dc:format><dc:type
         rdf:resource="http://purl.org/dc/dcmitype/StillImage" /><dc:title></dc:title></cc:Work></rdf:RDF></metadata><defs
   id="defs189" />











<path stroke="hsl(344, 71%, 95%)" fill="hsl(344, 71%, 95%)"
   id="path24"
   d="m 58.424825,33.87915 c 0,-5.571 2.72701,-11.717 7.294,-14.953 0.426,-0.302 0.881,-0.593 1.353,-0.864 2.619,-1.513 5.592,-2.312 8.595,-2.312 8.94201,0 16.489,6.979 17.183,15.887 l 0.109,0.847 0.845,-0.03 c 9.342005,0.004 17.233005,8.2 17.233005,17.901 0,9.703 -7.897,17.901 -17.240995,17.901 -3.923,0 -7.312,-1.152 -10.07301,-3.608 l -0.253,-0.131 h -0.899 l -0.334,0.165 c -1.70499,1.324 -5.256,4.032 -10.895,4.032 -4.14199,0 -6.995,-1.335 -10.523,-4.864 l -0.612,-0.624 -0.62699,0.592 c -3.053,2.912 -7.01601,4.448 -11.46101,4.448 -9.508,0 -17.24099,-7.692 -17.24099,-17.144 0,-2.647 0.60299,-5.211 1.79199,-7.618 0.212,-0.428 0.445,-0.856 0.695,-1.27 3.159,-5.231 8.512,-8.355 14.592,-8.355 1.479,0 3.189,0.198 4.189,0.567 v -1.836 c -1,-0.334 -2.716,-0.506 -4.189,-0.506 -6.707,0 -12.70899,3.444 -16.191,9.212 -0.276,0.457 -0.49399,0.929 -0.728,1.402 -1.31099,2.653 -1.95499,5.479 -1.95499,8.402 0,10.431 8.54099,18.918 19.025,18.918 4.611,0 8.765,-1.506 12.05899,-4.365 3.602,3.42 6.799,4.769 11.173,4.769 5.885,0 9.667,-2.668 11.642,-4.185 2.98201,2.471 6.709,3.774 10.815,3.774 10.307015,0 19.016005,-9.01 19.016005,-19.676 0,-10.408 -8.292,-19.24 -18.271005,-19.66 -1.143,-9.439 -9.279,-16.719 -18.872,-16.719 -3.315,0 -6.593,0.881 -9.482,2.548 -0.518,0.299 -1.02,0.619 -1.491,0.954 -5.035,3.568 -8.043,10.255 -8.043,16.401 0,0.027 0.003,0 0.003,0.027" />





















































<path stroke="hsl(344, 71%, 95%)" fill="hsl(344, 71%, 95%)"
   id="path132"
   d="m 25.032825,53.49215 c -8.866,0 -17.0639998,-4.444 -21.9229998,-11.743 1.899,0.396 3.836,0.596 5.783,0.596 11.8999998,0 22.1039998,-7.381 26.2909998,-17.801 l -1.67,-1.216 c -3.76899,9.934 -13.382,17.017 -24.6209998,17.017 -2.57799,0 -5.138,-0.377 -7.605,-1.121 -0.38599005,-0.117 -0.80899005,0.011 -1.06399005,0.327 -0.255,0.314 -0.29601,0.752 -0.10301,1.108 4.93700005,9.094 14.39699985,14.758 24.72399985,14.827 0.174,-0.677 0.37,-1.343 0.58,-2.004 -0.131,0.002 -0.261,0.01 -0.392,0.01" />
<path stroke="hsl(344, 71%, 95%)" fill="hsl(344, 71%, 95%)"
   id="path134"
   d="m 53.359825,27.16515 c 0,-12.395 -8.284,-23.5480002 -20.146,-27.12200016 -0.38399,-0.118 -0.808,0.011 -1.06199,0.326 -0.25601,0.315 -0.29701,0.75199996 -0.10401,1.10899996 2.076,3.824 3.173,8.16 3.173,12.5400002 0,1.827 -0.188,3.611 -0.544,5.334 l 1.757,1.279 c 0.51,-2.123 0.787,-4.336 0.787,-6.613 0,-3.88 -0.801,-7.7300002 -2.331,-11.2670002 9.806,3.977 16.471,13.6950002 16.471,24.4140002 0,0.598 -0.067,0.823 -0.067,0.823 l 2.034,0.485 c -10e-4,0 0.032,-0.869 0.032,-1.308" />

























</svg>