<?xml version="1.0" encoding="UTF-8" standalone="no"?>
<svg
   xmlns:dc="http://purl.org/dc/elements/1.1/"
   xmlns:cc="http://creativecommons.org/ns#"
   xmlns:rdf="http://www.w3.org/1999/02/22-rdf-syntax-ns#"
   xmlns:svg="http://www.w3.org/2000/svg"
   xmlns="http://www.w3.org/2000/svg"
   xml:space="preserve"
   enable-background="new 0 0 937.331 665.577"
   viewBox="0 0 53.35976 55.492145"
   height="55.492149"
   width="53.359756"
   y="0px"
   x="0px"
   id="Layer_1"
   version="1.1"><metadata
   id="metadata191"><rdf:RDF><cc:Work
       rdf:about=""><dc:format>image/svg+xml</dc:format><dc:type
         rdf:resource="http://purl.org/dc/dcmitype/StillImage" /><dc:title></dc:title></cc:Work></rdf:RDF></metadata><defs
   id="defs189" />
































































<path
   id="path130"
   d="m 33.214755,0.04314984 c -0.385,-0.118 -0.809,0.011 -1.064,0.326 -0.256,0.315 -0.297,0.75199996 -0.103,1.10899996 2.076,3.824 3.173,8.16 3.173,12.5400002 0,1.827 -0.188,3.611 -0.544,5.334 l 1.756,1.279 c 0.51,-2.123 0.788,-4.336 0.788,-6.613 0,-3.88 -0.801,-7.7300002 -2.331,-11.2670002 9.805,3.977 16.471,13.6950002 16.471,24.4140002 0,14.517 -11.811,26.327 -26.327,26.327 -8.866,0 -17.064,-4.444 -21.923,-11.742 1.899,0.395 3.836,0.595 5.783,0.595 11.901,0 22.103,-7.38 26.291,-17.801 l -1.67,-1.216 c -3.77,9.934 -13.382,17.017 -24.621,17.017 -2.578,0 -5.138,-0.377 -7.606,-1.12 -0.38699998,-0.118 -0.80899998,0.01 -1.06299998,0.326 -0.256,0.314 -0.297,0.752 -0.104,1.108 4.96599998,9.15 14.51199998,14.833 24.91199998,14.833 15.62,0 28.327,-12.707 28.327,-28.327 10e-4,-12.395 -8.283,-23.5470002 -20.145,-27.12200016" />



























</svg>