<?xml version="1.0" encoding="UTF-8" standalone="no"?>
<svg
   xmlns:dc="http://purl.org/dc/elements/1.1/"
   xmlns:cc="http://creativecommons.org/ns#"
   xmlns:rdf="http://www.w3.org/1999/02/22-rdf-syntax-ns#"
   xmlns:svg="http://www.w3.org/2000/svg"
   xmlns="http://www.w3.org/2000/svg"
   xml:space="preserve"
   enable-background="new 0 0 937.331 665.577"
   viewBox="0 0 83.730004 78.088017"
   height="78.08802"
   width="83.730003"
   y="0px"
   x="0px"
   id="Layer_1"
   version="1.1"><metadata
   id="metadata191"><rdf:RDF><cc:Work
       rdf:about=""><dc:format>image/svg+xml</dc:format><dc:type
         rdf:resource="http://purl.org/dc/dcmitype/StillImage" /><dc:title></dc:title></cc:Work></rdf:RDF></metadata><defs
   id="defs189" />












<path
   id="path26"
   d="m 29.343,19.903 c 0,-5.571 2.727,-11.717 7.294,-14.953 0.426,-0.302 0.881,-0.593 1.353,-0.864 2.619,-1.513 5.592,-2.312 8.595,-2.312 8.942,0 16.489,6.979 17.183,15.887 l 0.109,0.847 0.845,-0.03 c 9.342,0.004 17.233,8.2 17.233,17.901 0,9.703 -7.896,17.901 -17.241,17.901 -3.923,0 -7.312,-1.151 -10.073,-3.608 l -0.253,-0.131 h -0.9 l -0.334,0.165 c -1.705,1.324 -5.256,4.032 -10.896,4.032 -4.142,0 -6.995,-1.335 -10.523,-4.864 l -0.612,-0.624 -0.627,0.592 c -3.053,2.912 -7.016,4.449 -11.461,4.449 -9.508,0 -17.241,-7.693 -17.241,-17.145 0,-2.647 0.603,-5.211 1.792,-7.618 0.212,-0.428 0.445,-0.856 0.695,-1.27 3.159,-5.231 8.512,-8.355 14.592,-8.355 1.479,0 3.19,0.198 4.19,0.567 v -1.836 c -1,-0.334 -2.716,-0.506 -4.19,-0.506 -6.707,0 -12.709,3.444 -16.191,9.212 C 2.406,27.797 2.188,28.269 1.955,28.742 0.643,31.395 0,34.221 0,37.144 c 0,10.431 8.541,18.919 19.025,18.919 4.611,0 8.765,-1.506 12.059,-4.365 3.602,3.42 6.799,4.77 11.173,4.77 5.885,0 9.667,-2.668 11.642,-4.186 2.982,2.471 6.709,3.773 10.815,3.773 10.307,0 19.016,-9.01 19.016,-19.676 0,-10.408 -8.292,-19.24 -18.271,-19.66 C 64.316,7.28 56.18,0 46.587,0 c -3.314,0 -6.593,0.881 -9.482,2.548 -0.519,0.299 -1.02,0.619 -1.491,0.954 -5.035,3.568 -8.043,10.255 -8.043,16.401 0,0.027 0.003,0 0.003,0.027" />







































































<circle
   id="circle170"
   r="1.494"
   cy="65.59201"
   cx="25.857014" />
<circle
   id="circle172"
   r="1.494"
   cy="65.59201"
   cx="41.85799" />
<circle
   id="circle174"
   r="1.494"
   cy="65.59201"
   cx="57.858997" />
<circle
   id="circle176"
   r="1.494"
   cy="71.592987"
   cx="32.857014" />
<circle
   id="circle178"
   r="1.494"
   cy="71.592987"
   cx="47.85799" />
<circle
   id="circle180"
   r="1.494"
   cy="76.594025"
   cx="22.856007" />
<circle
   id="circle182"
   r="1.494"
   cy="76.594025"
   cx="38.857014" />
<circle
   id="circle184"
   r="1.494"
   cy="71.592987"
   cx="17.853992" />
</svg>