<?xml version="1.0" encoding="UTF-8" standalone="no"?>
<svg
   xmlns:dc="http://purl.org/dc/elements/1.1/"
   xmlns:cc="http://creativecommons.org/ns#"
   xmlns:rdf="http://www.w3.org/1999/02/22-rdf-syntax-ns#"
   xmlns:svg="http://www.w3.org/2000/svg"
   xmlns="http://www.w3.org/2000/svg"
   xml:space="preserve"
   enable-background="new 0 0 937.331 665.577"
   viewBox="0 0 104.22214 104.22699"
   height="104.227"
   width="104.22213"
   y="0px"
   x="0px"
   id="Layer_1"
   version="1.1"><metadata
   id="metadata191"><rdf:RDF><cc:Work
       rdf:about=""><dc:format>image/svg+xml</dc:format><dc:type
         rdf:resource="http://purl.org/dc/dcmitype/StillImage" /><dc:title></dc:title></cc:Work></rdf:RDF></metadata><defs
   id="defs189" />
<path stroke="hsl(344, 71%, 95%)" fill="hsl(344, 71%, 95%)"
   id="path2"
   d="m 78.446141,25.777 v 0 c -0.385,-0.385 -0.385,-1.01 0,-1.395 l 5.582,-5.582 c 0.385,-0.385 1.01,-0.385 1.395,0 0.385,0.386 0.385,1.01 0,1.396 l -5.582,5.581 c -0.385,0.385 -1.01,0.385 -1.395,0" />
<path stroke="hsl(344, 71%, 95%)" fill="hsl(344, 71%, 95%)"
   id="path4"
   d="M 103.23513,53.101 H 90.342141 c -0.545,0 -0.987,-0.442 -0.987,-0.987 0,-0.545 0.442,-0.986 0.987,-0.986 h 12.892989 c 0.545,0 0.987,0.441 0.987,0.986 0,0.545 -0.442,0.987 -0.987,0.987" />
<path stroke="hsl(344, 71%, 95%)" fill="hsl(344, 71%, 95%)"
   id="path6"
   d="m 52.109141,104.227 v 0 c -0.545,0 -0.987,-0.442 -0.987,-0.987 V 90.347 c 0,-0.545 0.442,-0.987 0.987,-0.987 0.545,0 0.987,0.442 0.987,0.987 v 12.893 c -0.001,0.546 -0.442,0.987 -0.987,0.987" />
<path stroke="hsl(344, 71%, 95%)" fill="hsl(344, 71%, 95%)"
   id="path8"
   d="m 1.4098537e-4,52.876 v 0 C -0.00885901,52.338 0.41414099,51.891 0.95214099,51.873 L 13.844141,51.597 c 0.552,-0.02 1.012,0.417 1.021,0.968 0.01,0.539 -0.414,0.985 -0.952,1.004 l -12.892,0.276 C 0.47014099,53.864 0.01014099,53.428 1.4098537e-4,52.876" />
<path stroke="hsl(344, 71%, 95%)" fill="hsl(344, 71%, 95%)"
   id="path10"
   d="m 52.109141,14.868 v 0 c -0.545,0 -0.987,-0.442 -0.987,-0.987 V 0.987 c 0,-0.545 0.442,-0.987 0.987,-0.987 0.545,0 0.987,0.442 0.987,0.987 V 13.88 c -0.001,0.545 -0.442,0.988 -0.987,0.988" />
<path stroke="hsl(344, 71%, 95%)" fill="hsl(344, 71%, 95%)"
   id="path12"
   d="m 84.028141,85.429 -5.582,-5.582 c -0.385,-0.385 -0.385,-1.01 0,-1.395 0.385,-0.385 1.01,-0.385 1.395,0 l 5.582,5.582 c 0.385,0.385 0.385,1.01 0,1.395 -0.385,0.384 -1.01,0.384 -1.395,0" />
<path stroke="hsl(344, 71%, 95%)" fill="hsl(344, 71%, 95%)"
   id="path14"
   d="m 18.795141,85.429 v 0 c -0.385,-0.385 -0.385,-1.01 0,-1.395 l 5.582,-5.582 c 0.385,-0.385 1.01,-0.385 1.395,0 0.385,0.385 0.385,1.01 0,1.395 l -5.582,5.582 c -0.386,0.384 -1.011,0.384 -1.395,0" />
<path stroke="hsl(344, 71%, 95%)" fill="hsl(344, 71%, 95%)"
   id="path16"
   d="m 24.376141,25.777 -5.582,-5.581 c -0.385,-0.386 -0.385,-1.01 0,-1.396 0.385,-0.385 1.01,-0.385 1.395,0 l 5.582,5.582 c 0.385,0.385 0.385,1.01 0,1.395 -0.384,0.385 -1.009,0.385 -1.395,0" />
<path stroke="hsl(344, 71%, 95%)" fill="hsl(344, 71%, 95%)"
   id="path18"
   d="m 71.455141,32.768 c -10.219,-10.219 -26.568,-10.635 -37.303,-1.277 l 1.211,1.212 c 4.8,-4.145 10.765,-6.246 16.746,-6.246 6.573,0 13.147,2.501 18.151,7.506 10.008,10.008 10.008,26.293 0,36.302 -10.009,10.009 -26.293,10.008 -36.302,0 -9.538,-9.539 -9.954,-24.759 -1.312,-34.833 l -1.214,-1.214 c -9.303,10.736 -8.868,27.043 1.331,37.242 5.334,5.333 12.34,8 19.346,8 7.006,0 14.012,-2.667 19.346,-8 10.667,-10.668 10.667,-28.025 0,-38.692" />



















































































</svg>