<?xml version="1.0" encoding="utf-8"?>
<!-- Generator: Adobe Illustrator 19.2.1, SVG Export Plug-In . SVG Version: 6.00 Build 0)  -->
<!DOCTYPE svg PUBLIC "-//W3C//DTD SVG 1.1//EN" "http://www.w3.org/Graphics/SVG/1.1/DTD/svg11.dtd">
<svg version="1.1" id="Layer_1" xmlns="http://www.w3.org/2000/svg" xmlns:xlink="http://www.w3.org/1999/xlink" x="0px" y="0px"
	 width="937.331px" height="665.577px" viewBox="0 0 937.331 665.577" enable-background="new 0 0 937.331 665.577"
	 xml:space="preserve">
<path d="M155.605,59.388L155.605,59.388c-0.385-0.385-0.385-1.01,0-1.395l5.582-5.582c0.385-0.385,1.01-0.385,1.395,0
	c0.385,0.386,0.385,1.01,0,1.396L157,59.388C156.615,59.773,155.99,59.773,155.605,59.388"/>
<path d="M180.394,86.712h-12.893c-0.545,0-0.987-0.442-0.987-0.987s0.442-0.986,0.987-0.986h12.893c0.545,0,0.987,0.441,0.987,0.986
	S180.939,86.712,180.394,86.712"/>
<path d="M129.268,137.838L129.268,137.838c-0.545,0-0.987-0.442-0.987-0.987v-12.893c0-0.545,0.442-0.987,0.987-0.987
	c0.545,0,0.987,0.442,0.987,0.987v12.893C130.254,137.397,129.813,137.838,129.268,137.838"/>
<path d="M77.159,86.487L77.159,86.487c-0.009-0.538,0.414-0.985,0.952-1.003l12.892-0.276c0.552-0.02,1.012,0.417,1.021,0.968
	c0.01,0.539-0.414,0.985-0.952,1.004L78.18,87.456C77.629,87.475,77.169,87.039,77.159,86.487"/>
<path d="M129.268,48.479L129.268,48.479c-0.545,0-0.987-0.442-0.987-0.987V34.598c0-0.545,0.442-0.987,0.987-0.987
	c0.545,0,0.987,0.442,0.987,0.987v12.893C130.254,48.036,129.813,48.479,129.268,48.479"/>
<path d="M161.187,119.04l-5.582-5.582c-0.385-0.385-0.385-1.01,0-1.395c0.385-0.385,1.01-0.385,1.395,0l5.582,5.582
	c0.385,0.385,0.385,1.01,0,1.395C162.197,119.424,161.572,119.424,161.187,119.04"/>
<path d="M95.954,119.04L95.954,119.04c-0.385-0.385-0.385-1.01,0-1.395l5.582-5.582c0.385-0.385,1.01-0.385,1.395,0
	c0.385,0.385,0.385,1.01,0,1.395l-5.582,5.582C96.963,119.424,96.338,119.424,95.954,119.04"/>
<path d="M101.535,59.388l-5.582-5.581c-0.385-0.386-0.385-1.01,0-1.396c0.385-0.385,1.01-0.385,1.395,0l5.582,5.582
	c0.385,0.385,0.385,1.01,0,1.395C102.546,59.773,101.921,59.773,101.535,59.388"/>
<path d="M148.614,66.379c-10.219-10.219-26.568-10.635-37.303-1.277l1.211,1.212c4.8-4.145,10.765-6.246,16.746-6.246
	c6.573,0,13.147,2.501,18.151,7.506c10.008,10.008,10.008,26.293,0,36.302c-10.009,10.009-26.293,10.008-36.302,0
	c-9.538-9.539-9.954-24.759-1.312-34.833l-1.214-1.214c-9.303,10.736-8.868,27.043,1.331,37.242c5.334,5.333,12.34,8,19.346,8
	c7.006,0,14.012-2.667,19.346-8C159.281,94.403,159.281,77.046,148.614,66.379"/>
<path d="M370.512,65.481c-10.357-10.357-26.927-10.779-37.807-1.294l1.228,1.228c4.864-4.201,10.909-6.331,16.972-6.331
	c6.662,0,13.324,2.536,18.396,7.608c10.143,10.144,10.143,26.648,0,36.792c-10.144,10.145-26.649,10.144-36.792,0
	c-9.667-9.667-10.089-25.093-1.33-35.303l-1.23-1.23c-9.43,10.881-8.988,27.408,1.349,37.744c5.405,5.406,12.506,8.109,19.607,8.109
	c7.1,0,14.201-2.703,19.607-8.109C381.324,93.884,381.324,76.293,370.512,65.481"/>
<path d="M576.72,94.091c0-5.807,2.842-12.212,7.603-15.585c0.444-0.315,0.918-0.618,1.408-0.901
	c2.731-1.576,5.829-2.408,8.958-2.408c9.321,0,17.188,7.273,17.909,16.557l0.114,0.883l0.88-0.031
	c9.738,0.004,17.961,8.546,17.961,18.657c0,10.113-8.229,18.658-17.969,18.658c-4.089,0-7.621-1.15-10.499-3.71l-0.263-0.086h-0.938
	l-0.348,0.121c-1.778,1.38-5.48,4.177-11.358,4.177c-4.316,0-7.29-1.404-10.967-5.082l-0.639-0.657l-0.654,0.614
	c-3.18,3.035-7.311,4.634-11.944,4.634c-9.909,0-17.97-8.017-17.97-17.869c0-2.759,0.629-5.431,1.868-7.939
	c0.221-0.447,0.464-0.893,0.725-1.325c3.292-5.452,8.975-8.708,15.311-8.708c1.542,0,3.471,0.207,4.471,0.591v-1.913
	c-1-0.347-2.934-0.527-4.471-0.527c-6.989,0-13.297,3.59-16.927,9.601c-0.288,0.476-0.54,0.968-0.784,1.461
	c-1.366,2.766-2.051,5.712-2.051,8.758c0,10.871,8.895,19.717,19.823,19.717c4.806,0,9.131-1.57,12.565-4.549
	c3.755,3.564,7.085,4.969,11.644,4.969c6.134,0,10.074-2.78,12.133-4.361c3.109,2.576,6.993,3.933,11.272,3.933
	c10.743,0,19.818-9.391,19.818-20.507c0-10.848-8.643-20.053-19.044-20.491c-1.189-9.837-9.671-17.425-19.67-17.425
	c-3.454,0-6.871,0.918-9.882,2.656c-0.541,0.311-1.063,0.645-1.554,0.994c-5.249,3.719-8.383,10.689-8.383,17.094
	c0,0.028,0.003,0,0.003,0.028"/>
<path d="M797.938,400.072c0-5.571,2.727-11.717,7.294-14.953c0.426-0.302,0.881-0.593,1.353-0.864
	c2.619-1.513,5.592-2.312,8.595-2.312c8.942,0,16.489,6.979,17.183,15.887l0.109,0.847l0.845-0.03
	c9.342,0.004,17.233,8.2,17.233,17.901c0,9.703-7.897,17.901-17.241,17.901c-3.923,0-7.312-1.152-10.073-3.608l-0.253-0.131h-0.899
	l-0.334,0.165c-1.705,1.324-5.256,4.032-10.895,4.032c-4.142,0-6.995-1.335-10.523-4.864l-0.612-0.624l-0.627,0.592
	c-3.053,2.912-7.016,4.448-11.461,4.448c-9.508,0-17.241-7.692-17.241-17.144c0-2.647,0.603-5.211,1.792-7.618
	c0.212-0.428,0.445-0.856,0.695-1.27c3.159-5.231,8.512-8.355,14.592-8.355c1.479,0,3.189,0.198,4.189,0.567v-1.836
	c-1-0.334-2.716-0.506-4.189-0.506c-6.707,0-12.709,3.444-16.191,9.212c-0.276,0.457-0.494,0.929-0.728,1.402
	c-1.311,2.653-1.955,5.479-1.955,8.402c0,10.431,8.541,18.918,19.025,18.918c4.611,0,8.765-1.506,12.059-4.365
	c3.602,3.42,6.799,4.769,11.173,4.769c5.885,0,9.667-2.668,11.642-4.185c2.982,2.471,6.709,3.774,10.815,3.774
	c10.307,0,19.016-9.01,19.016-19.676c0-10.408-8.292-19.24-18.271-19.66c-1.143-9.439-9.279-16.719-18.872-16.719
	c-3.315,0-6.593,0.881-9.482,2.548c-0.518,0.299-1.02,0.619-1.491,0.954c-5.035,3.568-8.043,10.255-8.043,16.401
	c0,0.027,0.003,0,0.003,0.027"/>
<path d="M337.031,540.683c0-5.571,2.727-11.717,7.294-14.953c0.426-0.302,0.881-0.593,1.353-0.864
	c2.619-1.513,5.592-2.312,8.595-2.312c8.942,0,16.489,6.979,17.183,15.887l0.109,0.847l0.845-0.03
	c9.342,0.004,17.233,8.2,17.233,17.901c0,9.703-7.896,17.901-17.241,17.901c-3.923,0-7.312-1.151-10.073-3.608l-0.253-0.131h-0.9
	l-0.334,0.165c-1.705,1.324-5.256,4.032-10.896,4.032c-4.142,0-6.995-1.335-10.523-4.864l-0.612-0.624l-0.627,0.592
	c-3.053,2.912-7.016,4.449-11.461,4.449c-9.508,0-17.241-7.693-17.241-17.145c0-2.647,0.603-5.211,1.792-7.618
	c0.212-0.428,0.445-0.856,0.695-1.27c3.159-5.231,8.512-8.355,14.592-8.355c1.479,0,3.19,0.198,4.19,0.567v-1.836
	c-1-0.334-2.716-0.506-4.19-0.506c-6.707,0-12.709,3.444-16.191,9.212c-0.276,0.457-0.494,0.929-0.727,1.402
	c-1.312,2.653-1.955,5.479-1.955,8.402c0,10.431,8.541,18.919,19.025,18.919c4.611,0,8.765-1.506,12.059-4.365
	c3.602,3.42,6.799,4.77,11.173,4.77c5.885,0,9.667-2.668,11.642-4.186c2.982,2.471,6.709,3.773,10.815,3.773
	c10.307,0,19.016-9.01,19.016-19.676c0-10.408-8.292-19.24-18.271-19.66c-1.143-9.439-9.279-16.719-18.872-16.719
	c-3.314,0-6.593,0.881-9.482,2.548c-0.519,0.299-1.02,0.619-1.491,0.954c-5.035,3.568-8.043,10.255-8.043,16.401
	c0,0.027,0.003,0,0.003,0.027"/>
<path d="M818.479,95.304h-51.121c-0.471,0-0.856-0.385-0.856-0.856c0-0.471,0.386-0.856,0.856-0.856h51.121
	c0.471,0,0.855,0.385,0.855,0.856C819.334,94.919,818.949,95.304,818.479,95.304"/>
<path d="M824.479,103.335h-47.121c-0.471,0-0.856-0.385-0.856-0.856c0-0.471,0.386-0.856,0.856-0.856h47.121
	c0.471,0,0.855,0.385,0.855,0.856C825.334,102.95,824.949,103.335,824.479,103.335"/>
<path d="M165.388,543.451L113.93,598.7c-0.357,0.383-0.963,0.405-1.348,0.048c-0.383-0.357-0.404-0.963-0.048-1.347l51.459-55.249
	c0.357-0.383,0.963-0.405,1.346-0.048C165.724,542.462,165.744,543.068,165.388,543.451"/>
<path d="M387.92,230.688l-51.458,55.249c-0.357,0.383-0.963,0.405-1.347,0.048c-0.383-0.357-0.405-0.964-0.048-1.347l51.458-55.249
	c0.358-0.383,0.964-0.405,1.347-0.048C388.255,229.697,388.276,230.304,387.92,230.688"/>
<path d="M804.024,111.366h-15.121c-0.472,0-0.857-0.385-0.857-0.856c0-0.471,0.385-0.856,0.857-0.856h15.121
	c0.471,0,0.855,0.385,0.855,0.856C804.879,110.982,804.494,111.366,804.024,111.366"/>
<path d="M590.79,246.484h-51.122c-0.471,0-0.856-0.385-0.856-0.856c0-0.471,0.385-0.856,0.856-0.856h51.122
	c0.471,0,0.855,0.385,0.855,0.856C591.646,246.1,591.261,246.484,590.79,246.484"/>
<path d="M596.79,254.516h-47.122c-0.471,0-0.856-0.385-0.856-0.856s0.385-0.856,0.856-0.856h47.122c0.471,0,0.855,0.385,0.855,0.856
	S597.261,254.516,596.79,254.516"/>
<path d="M576.334,262.547h-15.121c-0.471,0-0.856-0.385-0.856-0.856s0.385-0.856,0.856-0.856h15.121
	c0.472,0,0.857,0.385,0.857,0.856S576.806,262.547,576.334,262.547"/>
<path d="M543.773,403.211h-9.12c-0.471,0-0.855-0.385-0.855-0.857c0-0.471,0.385-0.856,0.855-0.856h9.12
	c0.472,0,0.856,0.385,0.856,0.856C544.629,402.826,544.245,403.211,543.773,403.211"/>
<path d="M571.525,418.085h-19.121c-0.471,0-0.855-0.385-0.855-0.856c0-0.471,0.385-0.856,0.855-0.856h19.121
	c0.472,0,0.856,0.385,0.856,0.856C572.381,417.7,571.997,418.085,571.525,418.085"/>
<path d="M563.338,403.125h-15.121c-0.471,0-0.855-0.385-0.855-0.855s0.385-0.855,0.855-0.855h15.121
	c0.472,0,0.857,0.385,0.857,0.855S563.81,403.125,563.338,403.125"/>
<path d="M545.98,411.211h-6.119c-0.472,0-0.856-0.385-0.856-0.856c0-0.471,0.385-0.856,0.856-0.856h6.119
	c0.472,0,0.857,0.385,0.857,0.856C546.837,410.826,546.452,411.211,545.98,411.211"/>
<path d="M568.397,396.836h-16.119c-0.472,0-0.857-0.385-0.857-0.856c0-0.471,0.385-0.855,0.857-0.855h16.119
	c0.472,0,0.856,0.385,0.856,0.855C569.254,396.452,568.869,396.836,568.397,396.836"/>
<path d="M551.629,230.939h44.122c0.471,0,0.856-0.385,0.856-0.856c0-0.471-0.385-0.856-0.856-0.856h-44.122V230.939z"/>
<path d="M539.82,230.939h8.121v-1.712h-8.121c-0.471,0-0.857,0.385-0.857,0.856C538.964,230.553,539.349,230.939,539.82,230.939"/>
<path d="M549.085,238.97h55.121c0.471,0,0.855-0.385,0.855-0.856c0-0.471-0.385-0.856-0.855-0.856h-55.121
	c-0.471,0-0.856,0.385-0.856,0.856C548.229,238.585,548.614,238.97,549.085,238.97"/>
<path d="M814.882,66.179c-10.357-10.357-26.927-10.716-37.807-1.231l1.228,1.259c4.864-4.201,10.909-6.315,16.972-6.315
	c6.662,0,13.324,2.418,18.396,7.49c5.908,5.908,8.368,14.566,7.394,21.566h1.725C823.754,80.948,821.124,72.421,814.882,66.179"/>
<path d="M775.549,68.879l-1.231-1.292c-5.26,6.069-7.444,14.361-6.558,21.361h1.73C768.607,81.948,770.63,74.613,775.549,68.879"/>
<path d="M815.427,534.642c-10.357-10.357-26.927-10.716-37.807-1.231l1.228,1.259c4.864-4.201,10.909-6.315,16.972-6.315
	c6.662,0,13.324,2.418,18.396,7.49c5.908,5.908,8.368,14.566,7.394,21.566h1.725C824.299,549.411,821.669,540.883,815.427,534.642"
	/>
<path d="M776.094,537.341l-1.231-1.292c-5.26,6.069-7.444,14.361-6.558,21.361h1.73
	C769.152,550.411,771.175,543.075,776.094,537.341"/>
<path d="M577.103,62.198l4.984-4.985c0.345-0.344,0.345-0.902,0-1.246c-0.344-0.344-0.901-0.344-1.246,0l-4.984,4.985
	c-0.345,0.344-0.345,0.902,0,1.246C576.2,62.542,576.758,62.542,577.103,62.198"/>
<path d="M518.157,85.259l-11.515,0.246c-0.48,0.017-0.858,0.416-0.85,0.897c0.009,0.492,0.42,0.882,0.912,0.865l11.515-0.247
	c0.48-0.016,0.858-0.415,0.85-0.896C519.061,85.632,518.65,85.242,518.157,85.259"/>
<path d="M552.381,52.455c0.487,0,1-0.395,1-0.881V40.058c0-0.487-0.513-0.881-1-0.881c-0.487,0-1,0.394-1,0.881v11.516
	C551.381,52.06,551.894,52.455,552.381,52.455"/>
<path d="M528.811,109.244c-0.344-0.344-0.902-0.344-1.246,0l-4.985,4.985c-0.345,0.344-0.345,0.902,0,1.247
	c0.344,0.344,0.902,0.344,1.246,0l4.985-4.986C529.154,110.146,529.154,109.588,528.811,109.244"/>
<path d="M527.564,62.198c0.344,0.344,0.902,0.344,1.246,0c0.344-0.344,0.344-0.902,0-1.246l-4.985-4.985
	c-0.344-0.344-0.902-0.344-1.246,0c-0.344,0.344-0.344,0.902,0,1.246L527.564,62.198z"/>
<path d="M569.612,68.442c-9.127-9.127-23.729-9.498-33.317-1.14l1.082,1.082c4.286-3.702,9.614-5.579,14.957-5.579
	c5.87,0,11.741,2.235,16.211,6.704c1.623,1.624,2.948,3.433,3.98,5.359l1.066-1.187C572.531,71.806,571.208,70.039,569.612,68.442"
	/>
<path d="M536.122,101.933c-8.519-8.519-8.891-22.113-1.172-31.111l-1.084-1.084c-8.309,9.589-7.92,24.153,1.189,33.262
	c2.249,2.249,4.834,3.961,7.592,5.148l1.063-1.184C540.947,105.847,538.359,104.17,536.122,101.933"/>
<path d="M376.102,223.198l4.985-4.985c0.344-0.344,0.344-0.902,0-1.246c-0.344-0.344-0.902-0.344-1.246,0l-4.985,4.985
	c-0.344,0.344-0.344,0.902,0,1.246C375.2,223.542,375.758,223.542,376.102,223.198"/>
<path d="M317.157,246.259l-11.515,0.246c-0.48,0.017-0.858,0.416-0.85,0.897c0.009,0.492,0.42,0.882,0.912,0.865l11.515-0.247
	c0.48-0.016,0.858-0.415,0.85-0.896C318.061,246.632,317.65,246.242,317.157,246.259"/>
<path d="M351.381,213.455c0.487,0,1-0.395,1-0.881v-11.516c0-0.487-0.513-0.881-1-0.881c-0.487,0-1,0.394-1,0.881v11.516
	C350.381,213.06,350.894,213.455,351.381,213.455"/>
<path d="M327.811,270.244c-0.344-0.344-0.902-0.344-1.246,0l-4.985,4.985c-0.345,0.344-0.345,0.902,0,1.247
	c0.344,0.344,0.902,0.344,1.246,0l4.985-4.986C328.154,271.146,328.154,270.588,327.811,270.244"/>
<path d="M326.565,223.198c0.344,0.344,0.902,0.344,1.246,0c0.344-0.344,0.344-0.902,0-1.246l-4.985-4.985
	c-0.344-0.344-0.902-0.344-1.246,0c-0.344,0.344-0.344,0.902,0,1.246L326.565,223.198z"/>
<path d="M368.612,229.442c-9.127-9.127-23.729-9.498-33.317-1.14l1.082,1.082c4.286-3.702,9.614-5.579,14.957-5.579
	c5.87,0,11.741,2.235,16.211,6.704c1.623,1.624,2.948,3.433,3.981,5.359l1.066-1.187
	C371.531,232.806,370.208,231.039,368.612,229.442"/>
<path d="M335.122,262.933c-8.519-8.519-8.891-22.113-1.172-31.111l-1.084-1.084c-8.309,9.589-7.92,24.153,1.189,33.262
	c2.249,2.249,4.835,3.961,7.592,5.148l1.063-1.184C339.947,266.847,337.359,265.17,335.122,262.933"/>
<path d="M568.442,548.041c0-5.807,2.842-12.212,7.603-15.585c0.444-0.315,0.918-0.618,1.408-0.901
	c2.731-1.576,5.829-2.408,8.958-2.408c9.321,0,17.188,7.273,17.909,16.557l0.114,0.883l0.88-0.031
	c9.738,0.004,17.961,8.546,17.961,18.657c0,10.113-8.229,18.658-17.969,18.658c-4.089,0-7.621-1.15-10.499-3.71l-0.263-0.086h-0.938
	l-0.348,0.121c-1.778,1.38-5.479,4.177-11.357,4.177c-4.316,0-7.29-1.404-10.967-5.082l-0.639-0.657l-0.654,0.614
	c-3.18,3.035-7.312,4.634-11.944,4.634c-9.909,0-17.97-8.017-17.97-17.869c0-2.759,0.629-5.431,1.868-7.939
	c0.221-0.447,0.464-0.893,0.725-1.325c3.292-5.452,8.976-8.708,15.312-8.708c1.542,0,3.471,0.207,4.471,0.591v-1.914
	c-1-0.347-2.934-0.527-4.471-0.527c-6.989,0-13.297,3.59-16.928,9.601c-0.287,0.476-0.54,0.968-0.783,1.461
	c-1.366,2.766-2.052,5.712-2.052,8.758c0,10.871,8.896,19.717,19.823,19.717c4.806,0,9.131-1.57,12.565-4.549
	c3.755,3.564,7.085,4.969,11.644,4.969c6.134,0,10.074-2.78,12.133-4.361c3.109,2.576,6.993,3.933,11.272,3.933
	c10.743,0,19.818-9.391,19.818-20.507c0-10.848-8.643-20.053-19.044-20.491c-1.189-9.837-9.671-17.425-19.67-17.425
	c-3.454,0-6.871,0.918-9.882,2.656c-0.541,0.311-1.063,0.645-1.554,0.994c-5.249,3.719-8.383,10.689-8.383,17.094
	c0,0.028,0.003,0,0.003,0.028"/>
<path d="M561.334,527.393c-9.128-9.127-23.729-9.498-33.317-1.14l1.082,1.082c4.286-3.702,9.614-5.579,14.957-5.579
	c5.87,0,11.741,2.235,16.211,6.704c1.623,1.624,2.948,3.433,3.98,5.359l1.066-1.187C564.253,530.756,562.93,528.989,561.334,527.393
	"/>
<path d="M527.844,560.883c-8.52-8.519-8.892-22.113-1.172-31.111l-1.084-1.084c-8.31,9.589-7.92,24.153,1.188,33.262
	c2.249,2.249,4.834,3.961,7.592,5.148l1.064-1.184C532.669,564.797,530.081,563.12,527.844,560.883"/>
<path d="M113.612,206.442c-9.127-9.127-23.729-9.498-33.317-1.14l1.082,1.082c4.286-3.702,9.614-5.579,14.957-5.579
	c5.87,0,11.741,2.235,16.211,6.704c1.623,1.624,2.948,3.433,3.981,5.359l1.066-1.187
	C116.531,209.806,115.208,208.039,113.612,206.442"/>
<path d="M80.122,239.933c-8.519-8.519-8.891-22.113-1.172-31.111l-1.084-1.084c-8.309,9.589-7.92,24.153,1.189,33.262
	c2.249,2.249,4.834,3.961,7.592,5.148l1.063-1.184C84.947,243.847,82.359,242.17,80.122,239.933"/>
<path d="M99.407,439.794c-0.149,0-0.301-0.033-0.443-0.104c-0.495-0.246-0.697-0.846-0.452-1.34l4.737-9.552
	c0.246-0.494,0.845-0.696,1.34-0.451s0.697,0.845,0.452,1.34l-4.737,9.551C100.129,439.59,99.775,439.794,99.407,439.794"/>
<path d="M104.124,446.569c-0.149,0-0.3-0.033-0.443-0.104c-0.495-0.245-0.697-0.845-0.452-1.34l5.736-11.552
	c0.246-0.495,0.845-0.696,1.341-0.452c0.494,0.246,0.696,0.846,0.451,1.341l-5.736,11.552
	C104.846,446.365,104.492,446.569,104.124,446.569"/>
<path d="M136.276,446.569c-0.149,0-0.3-0.033-0.443-0.104c-0.495-0.245-0.697-0.846-0.452-1.34l5.737-11.552
	c0.245-0.495,0.845-0.696,1.34-0.452c0.495,0.246,0.697,0.847,0.452,1.341l-5.737,11.552
	C136.998,446.365,136.644,446.569,136.276,446.569"/>
<path d="M147.472,439.794c-0.149,0-0.301-0.033-0.443-0.104c-0.495-0.246-0.697-0.846-0.452-1.34l4.737-9.552
	c0.246-0.494,0.845-0.696,1.34-0.451c0.495,0.245,0.697,0.845,0.452,1.34l-4.737,9.551
	C148.194,439.59,147.84,439.794,147.472,439.794"/>
<path d="M121.662,224.487c0-5.571,2.727-11.717,7.294-14.953c0.426-0.302,0.881-0.593,1.352-0.864
	c2.62-1.513,5.592-2.312,8.595-2.312c8.943,0,16.49,6.979,17.183,15.887l0.109,0.847l0.845-0.03
	c9.342,0.004,17.233,8.2,17.233,17.901c0,9.703-7.896,17.901-17.241,17.901c-3.923,0-7.312-1.152-10.073-3.608l-0.253-0.131h-0.899
	l-0.334,0.165c-1.706,1.324-5.256,4.032-10.896,4.032c-4.143,0-6.995-1.335-10.523-4.864l-0.613-0.624l-0.627,0.592
	c-3.052,2.912-7.015,4.448-11.461,4.448c-9.507,0-17.241-7.692-17.241-17.144c0-2.647,0.603-5.211,1.792-7.618
	c0.212-0.428,0.446-0.856,0.696-1.27c3.159-5.231,8.511-8.355,14.591-8.355c1.479,0,3.19,0.198,4.19,0.567v-1.836
	c-1-0.334-2.716-0.506-4.19-0.506c-6.707,0-12.709,3.444-16.191,9.212c-0.276,0.457-0.494,0.929-0.728,1.402
	c-1.311,2.653-1.955,5.479-1.955,8.402c0,10.431,8.541,18.918,19.026,18.918c4.611,0,8.764-1.506,12.058-4.365
	c3.602,3.42,6.799,4.769,11.173,4.769c5.885,0,9.667-2.668,11.642-4.185c2.982,2.471,6.709,3.774,10.815,3.774
	c10.307,0,19.016-9.01,19.016-19.676c0-10.408-8.292-19.24-18.272-19.66c-1.142-9.439-9.279-16.719-18.872-16.719
	c-3.314,0-6.593,0.881-9.482,2.548c-0.518,0.299-1.02,0.619-1.491,0.954c-5.036,3.568-8.043,10.255-8.043,16.401
	c0,0.027,0.003,0,0.003,0.027"/>
<path d="M107.407,278.794c-0.149,0-0.301-0.033-0.443-0.104c-0.495-0.246-0.697-0.846-0.452-1.34l4.737-9.552
	c0.246-0.494,0.845-0.696,1.34-0.451c0.495,0.245,0.697,0.845,0.452,1.34l-4.737,9.551
	C108.129,278.589,107.775,278.794,107.407,278.794"/>
<path d="M123.472,278.794c-0.149,0-0.301-0.033-0.443-0.104c-0.495-0.246-0.697-0.846-0.452-1.34l4.737-9.552
	c0.246-0.494,0.846-0.696,1.34-0.451c0.495,0.245,0.697,0.845,0.452,1.34l-4.737,9.551
	C124.194,278.589,123.84,278.794,123.472,278.794"/>
<path d="M139.472,278.794c-0.149,0-0.301-0.033-0.443-0.104c-0.495-0.246-0.697-0.846-0.452-1.34l4.737-9.552
	c0.245-0.494,0.846-0.696,1.34-0.451c0.495,0.245,0.697,0.845,0.452,1.34l-4.737,9.551
	C140.194,278.589,139.84,278.794,139.472,278.794"/>
<path d="M112.124,285.569c-0.149,0-0.3-0.033-0.443-0.104c-0.495-0.246-0.697-0.845-0.452-1.34l5.736-11.552
	c0.246-0.495,0.845-0.696,1.341-0.452c0.494,0.246,0.696,0.845,0.451,1.341l-5.736,11.551
	C112.846,285.365,112.492,285.569,112.124,285.569"/>
<path d="M144.276,285.569c-0.149,0-0.3-0.033-0.443-0.104c-0.495-0.246-0.697-0.846-0.452-1.34l5.737-11.552
	c0.245-0.495,0.845-0.696,1.34-0.452c0.495,0.246,0.697,0.846,0.452,1.341l-5.737,11.551
	C144.998,285.365,144.644,285.569,144.276,285.569"/>
<path d="M128.2,285.569c-0.149,0-0.3-0.033-0.443-0.104c-0.495-0.246-0.697-0.846-0.452-1.34l5.737-11.552
	c0.246-0.495,0.845-0.696,1.34-0.452c0.495,0.246,0.697,0.846,0.452,1.341l-5.737,11.551
	C128.922,285.365,128.568,285.569,128.2,285.569"/>
<path d="M155.472,278.794c-0.149,0-0.301-0.033-0.443-0.104c-0.495-0.246-0.697-0.846-0.452-1.34l4.737-9.552
	c0.246-0.494,0.845-0.696,1.34-0.451c0.495,0.245,0.697,0.845,0.452,1.34l-4.737,9.551
	C156.194,278.589,155.84,278.794,155.472,278.794"/>
<path d="M802.452,213.65c-0.385-0.118-0.809,0.011-1.064,0.326c-0.256,0.315-0.297,0.752-0.103,1.109
	c2.076,3.824,3.173,8.16,3.173,12.54c0,1.827-0.188,3.611-0.544,5.334l1.756,1.279c0.51-2.123,0.788-4.336,0.788-6.613
	c0-3.88-0.801-7.73-2.331-11.267c9.805,3.977,16.471,13.695,16.471,24.414c0,14.517-11.811,26.327-26.327,26.327
	c-8.866,0-17.064-4.444-21.923-11.742c1.899,0.395,3.836,0.595,5.783,0.595c11.901,0,22.103-7.38,26.291-17.801l-1.67-1.216
	c-3.77,9.934-13.382,17.017-24.621,17.017c-2.578,0-5.138-0.377-7.606-1.12c-0.387-0.118-0.809,0.01-1.063,0.326
	c-0.256,0.314-0.297,0.752-0.104,1.108c4.966,9.15,14.512,14.833,24.912,14.833c15.62,0,28.327-12.707,28.327-28.327
	C822.598,228.377,814.314,217.225,802.452,213.65"/>
<path d="M764.546,419.685c-8.866,0-17.064-4.444-21.923-11.743c1.899,0.396,3.836,0.596,5.783,0.596
	c11.9,0,22.104-7.381,26.291-17.801l-1.67-1.216c-3.769,9.934-13.382,17.017-24.621,17.017c-2.578,0-5.138-0.377-7.605-1.121
	c-0.386-0.117-0.809,0.011-1.064,0.327c-0.255,0.314-0.296,0.752-0.103,1.108c4.937,9.094,14.397,14.758,24.724,14.827
	c0.174-0.677,0.37-1.343,0.58-2.004C764.807,419.677,764.677,419.685,764.546,419.685"/>
<path d="M792.873,393.358c0-12.395-8.284-23.548-20.146-27.122c-0.384-0.118-0.808,0.011-1.062,0.326
	c-0.256,0.315-0.297,0.752-0.104,1.109c2.076,3.824,3.173,8.16,3.173,12.54c0,1.827-0.188,3.611-0.544,5.334l1.757,1.279
	c0.51-2.123,0.787-4.336,0.787-6.613c0-3.88-0.801-7.73-2.331-11.267c9.806,3.977,16.471,13.695,16.471,24.414
	c0,0.598-0.067,0.823-0.067,0.823l2.034,0.485C792.84,394.666,792.873,393.797,792.873,393.358"/>
<path d="M121.351,578.22c-8.866,0-17.064-4.444-21.923-11.743c1.899,0.396,3.836,0.597,5.783,0.597
	c11.9,0,22.103-7.381,26.291-17.802l-1.671-1.216c-3.769,9.934-13.381,17.018-24.62,17.018c-2.578,0-5.138-0.378-7.606-1.121
	c-0.386-0.117-0.809,0.011-1.064,0.326c-0.255,0.315-0.296,0.752-0.103,1.108c4.937,9.094,14.398,14.758,24.724,14.827
	c0.174-0.677,0.37-1.343,0.58-2.004C121.611,578.212,121.482,578.22,121.351,578.22"/>
<path d="M149.678,551.893c0-12.395-8.284-23.548-20.146-27.122c-0.384-0.118-0.808,0.011-1.062,0.326
	c-0.256,0.315-0.297,0.752-0.104,1.109c2.076,3.824,3.173,8.16,3.173,12.54c0,1.827-0.188,3.611-0.544,5.334l1.757,1.279
	c0.51-2.123,0.787-4.336,0.787-6.613c0-3.88-0.801-7.73-2.331-11.267c9.806,3.977,16.471,13.695,16.471,24.414
	c0,0.598-0.067,0.823-0.067,0.823l2.034,0.485C149.645,553.201,149.678,552.332,149.678,551.893"/>
<path d="M149.775,382.303c-1.142-9.439-9.279-16.719-18.872-16.719c-3.314,0-6.593,0.881-9.482,2.549
	c-0.519,0.298-1.021,0.619-1.491,0.953c-5.036,3.568-8.043,10.255-8.043,16.401c0,0.028,0.002,0,0.003,0.028l1.772-0.028
	c0-5.571,2.727-11.717,7.294-14.953c0.426-0.302,0.88-0.593,1.352-0.864c2.619-1.512,5.592-2.311,8.595-2.311
	c8.943,0,16.49,6.978,17.182,15.886l0.109,0.847l0.845-0.03c9.343,0.004,17.233,8.2,17.233,17.901c0,9.704-7.895,17.9-17.24,17.9
	c-3.923,0-6.839-1.071-9.381-2.946l-0.27,0.208l-1,0.865c2.955,2.386,6.618,3.648,10.65,3.648c10.307,0,19.016-9.01,19.016-19.676
	C168.047,391.555,159.755,382.723,149.775,382.303"/>
<path d="M114.814,415.426c-3.051,2.912-7.015,4.448-11.461,4.448c-9.507,0-17.241-7.692-17.241-17.143
	c0-2.647,0.603-5.211,1.792-7.619c0.212-0.429,0.446-0.856,0.696-1.27c3.159-5.232,8.512-8.355,14.591-8.355
	c1.479,0,3.19,0.198,4.19,0.567v-1.836c-1-0.334-2.715-0.506-4.19-0.506c-6.706,0-12.708,3.444-16.191,9.212
	c-0.276,0.457-0.494,0.929-0.727,1.402c-1.311,2.653-1.956,5.48-1.956,8.402c0,10.431,8.541,18.918,19.026,18.918
	c4.602,0,8.747-1.502,12.038-4.35L114.814,415.426z"/>
<path fill="none" stroke="#000000" stroke-width="2" stroke-miterlimit="10" d="M129.598,404.62l-12.92,20.634
	c-0.129,0.189,0.011,0.444,0.24,0.435l9.581-0.422c0.203-0.009,0.347,0.196,0.27,0.384l-6.092,17.026
	c-0.127,0.307,0.293,0.537,0.484,0.265l14.016-22.192c0.13-0.184-0.002-0.437-0.227-0.437h-9.084c-0.184,0-0.316-0.173-0.268-0.349
	l4.498-15.114C130.175,404.547,129.775,404.364,129.598,404.62"/>
<path fill="none" stroke="#000000" stroke-width="2" stroke-miterlimit="10" d="M355.166,404.62l-12.92,20.634
	c-0.129,0.189,0.011,0.444,0.24,0.435l9.581-0.422c0.203-0.009,0.347,0.196,0.27,0.384l-6.092,17.026
	c-0.127,0.307,0.293,0.537,0.484,0.265l14.016-22.192c0.13-0.184-0.002-0.437-0.227-0.437h-9.085c-0.184,0-0.316-0.173-0.268-0.349
	l4.497-15.114C355.743,404.547,355.343,404.364,355.166,404.62"/>
<path d="M374.775,382.303c-1.142-9.439-9.279-16.719-18.872-16.719c-3.314,0-6.593,0.881-9.482,2.549
	c-0.519,0.298-1.021,0.619-1.491,0.953c-5.036,3.568-8.043,10.255-8.043,16.401c0,0.028,0.002,0,0.003,0.028l1.772-0.028
	c0-5.571,2.727-11.717,7.294-14.953c0.426-0.302,0.88-0.593,1.352-0.864c2.619-1.512,5.592-2.311,8.595-2.311
	c8.943,0,16.49,6.978,17.182,15.886l0.109,0.847l0.845-0.03c9.343,0.004,17.233,8.2,17.233,17.901c0,9.704-7.895,17.9-17.24,17.9
	c-3.923,0-6.839-1.071-9.381-2.946l-0.27,0.208l-1,0.865c2.955,2.386,6.618,3.648,10.65,3.648c10.307,0,19.016-9.01,19.016-19.676
	C393.047,391.555,384.755,382.723,374.775,382.303"/>
<path d="M339.814,415.426c-3.051,2.912-7.015,4.448-11.461,4.448c-9.507,0-17.241-7.692-17.241-17.143
	c0-2.647,0.603-5.211,1.792-7.619c0.212-0.429,0.446-0.856,0.696-1.27c3.159-5.232,8.512-8.355,14.591-8.355
	c1.479,0,3.19,0.198,4.19,0.567v-1.836c-1-0.334-2.715-0.506-4.19-0.506c-6.706,0-12.708,3.444-16.191,9.212
	c-0.276,0.457-0.494,0.929-0.727,1.402c-1.311,2.653-1.956,5.48-1.956,8.402c0,10.431,8.541,18.918,19.026,18.918
	c4.602,0,8.747-1.502,12.038-4.35L339.814,415.426z"/>
<path d="M599.417,418.873c0,2.542-0.99,4.933-2.788,6.732c0,0-0.806,0.405-1.347-0.124c-0.541-0.529-0.067-1.29-0.067-1.29
	c1.42-1.421,2.202-3.309,2.202-5.317c0-4.13-3.347-7.673-7.47-7.7c-0.014,0-37.918-0.05-37.918-0.05s-0.867-0.21-0.867-1.012
	c0-0.802,0.867-0.988,0.867-0.988s37.923,0.059,37.945,0.061C595.19,409.227,599.417,413.65,599.417,418.873"/>
<path d="M593.792,393.375c0-2.542-0.99-4.933-2.787-6.731c0,0-0.807-0.406-1.348,0.124c-0.541,0.529-0.066,1.29-0.066,1.29
	c1.42,1.421,2.201,3.31,2.201,5.317c0,4.13-3.346,7.674-7.469,7.701c-0.014,0-15.917,0.049-15.917,0.049s-0.867,0.211-0.867,1.012
	c0,0.803,0.867,0.988,0.867,0.988s15.923-0.059,15.945-0.06C589.566,403.022,593.792,398.598,593.792,393.375"/>
<path d="M773.628,564.185h-9.12c-0.471,0-0.855-0.385-0.855-0.857c0-0.471,0.385-0.747,0.855-0.747h9.12
	c0.472,0,0.856,0.276,0.856,0.747C774.484,563.8,774.1,564.185,773.628,564.185"/>
<path d="M801.38,579.059h-19.121c-0.471,0-0.855-0.385-0.855-0.857c0-0.471,0.385-0.855,0.855-0.855h19.121
	c0.472,0,0.856,0.385,0.856,0.855C802.236,578.674,801.852,579.059,801.38,579.059"/>
<path d="M793.193,564.099h-15.121c-0.471,0-0.855-0.385-0.855-0.855s0.385-0.855,0.855-0.855h15.121
	c0.472,0,0.857,0.385,0.857,0.855S793.665,564.099,793.193,564.099"/>
<path d="M823.693,564.099h-25.121c-0.471,0-0.855-0.385-0.855-0.855s0.385-0.855,0.855-0.855h25.121
	c0.472,0,0.857,0.385,0.857,0.855S824.165,564.099,823.693,564.099"/>
<path d="M775.835,572.185h-6.119c-0.472,0-0.856-0.385-0.856-0.856c0-0.471,0.385-0.856,0.856-0.856h6.119
	c0.472,0,0.857,0.385,0.857,0.856C776.692,571.8,776.307,572.185,775.835,572.185"/>
<path d="M798.252,557.811h-16.119c-0.472,0-0.857-0.385-0.857-0.856c0-0.471,0.385-0.856,0.857-0.856h16.119
	c0.472,0,0.856,0.385,0.856,0.856C799.109,557.426,798.724,557.811,798.252,557.811"/>
<path d="M829.272,579.847c0,2.542-0.99,4.933-2.788,6.732c0,0-0.806,0.405-1.347-0.124c-0.541-0.529-0.067-1.29-0.067-1.29
	c1.42-1.421,2.202-3.31,2.202-5.317c0-4.13-3.347-7.673-7.47-7.7c-0.014,0-37.918-0.05-37.918-0.05s-0.867-0.21-0.867-1.012
	c0-0.802,0.867-0.988,0.867-0.988s37.923,0.059,37.945,0.061C825.045,570.201,829.272,574.625,829.272,579.847"/>
<circle cx="333.545" cy="586.372" r="1.494"/>
<circle cx="349.546" cy="586.372" r="1.494"/>
<circle cx="365.547" cy="586.372" r="1.494"/>
<circle cx="340.545" cy="592.373" r="1.494"/>
<circle cx="355.546" cy="592.373" r="1.494"/>
<circle cx="330.544" cy="597.374" r="1.494"/>
<circle cx="346.545" cy="597.374" r="1.494"/>
<circle cx="325.542" cy="592.373" r="1.494"/>
</svg>
