<?xml version="1.0" encoding="UTF-8" standalone="no"?>
<svg
   xmlns:dc="http://purl.org/dc/elements/1.1/"
   xmlns:cc="http://creativecommons.org/ns#"
   xmlns:rdf="http://www.w3.org/1999/02/22-rdf-syntax-ns#"
   xmlns:svg="http://www.w3.org/2000/svg"
   xmlns="http://www.w3.org/2000/svg"
   xml:space="preserve"
   enable-background="new 0 0 937.331 665.577"
   viewBox="0 0 65.619008 39.25784"
   height="39.257843"
   width="65.619003"
   y="0px"
   x="0px"
   id="Layer_1"
   version="1.1"><metadata
   id="metadata191"><rdf:RDF><cc:Work
       rdf:about=""><dc:format>image/svg+xml</dc:format><dc:type
         rdf:resource="http://purl.org/dc/dcmitype/StillImage" /><dc:title></dc:title></cc:Work></rdf:RDF></metadata><defs
   id="defs189" />





















<path
   id="path44"
   d="m 9.975,16.715639 h -9.12 c -0.471,0 -0.855,-0.385 -0.855,-0.857 0,-0.471 0.385,-0.856 0.855,-0.856 h 9.12 c 0.472,0 0.856,0.385 0.856,0.856 0,0.472 -0.384,0.857 -0.856,0.857" />
<path
   id="path46"
   d="M 37.727,31.589639 H 18.606 c -0.471,0 -0.855,-0.385 -0.855,-0.856 0,-0.471 0.385,-0.856 0.855,-0.856 h 19.121 c 0.472,0 0.856,0.385 0.856,0.856 0,0.471 -0.384,0.856 -0.856,0.856" />
<path
   id="path48"
   d="M 29.54,16.629639 H 14.419 c -0.471,0 -0.855,-0.385 -0.855,-0.855 0,-0.47 0.385,-0.855 0.855,-0.855 H 29.54 c 0.472,0 0.857,0.385 0.857,0.855 0,0.47 -0.385,0.855 -0.857,0.855" />
<path
   id="path50"
   d="M 12.182,24.715639 H 6.063 c -0.472,0 -0.856,-0.385 -0.856,-0.856 0,-0.471 0.385,-0.856 0.856,-0.856 h 6.119 c 0.472,0 0.857,0.385 0.857,0.856 0,0.471 -0.385,0.856 -0.857,0.856" />
<path
   id="path52"
   d="M 34.599,10.340639 H 18.48 c -0.472,0 -0.857,-0.3849999 -0.857,-0.8559999 0,-0.471 0.385,-0.855 0.857,-0.855 h 16.119 c 0.472,0 0.856,0.385 0.856,0.855 0.001,0.472 -0.384,0.8559999 -0.856,0.8559999" />

















































<path
   id="path152"
   d="m 65.619,32.377639 c 0,2.542 -0.99,4.933 -2.788,6.732 0,0 -0.806,0.405 -1.347,-0.124 -0.541,-0.529 -0.067,-1.29 -0.067,-1.29 1.42,-1.421 2.202,-3.309 2.202,-5.317 0,-4.13 -3.347,-7.673 -7.47,-7.7 -0.014,0 -37.918,-0.05 -37.918,-0.05 0,0 -0.867,-0.21 -0.867,-1.012 0,-0.802 0.867,-0.988 0.867,-0.988 0,0 37.923,0.059 37.945,0.061 5.216,0.042 9.443,4.465 9.443,9.688" />
<path
   id="path154"
   d="m 59.994,6.8796391 c 0,-2.542 -0.99,-4.933 -2.787,-6.731 0,0 -0.807,-0.406 -1.348,0.124 -0.541,0.529 -0.066,1.29 -0.066,1.29 1.42,1.421 2.201,3.31 2.201,5.317 0,4.1299999 -3.346,7.6739999 -7.469,7.7009999 -0.014,0 -15.917,0.049 -15.917,0.049 0,0 -0.867,0.211 -0.867,1.012 0,0.803 0.867,0.988 0.867,0.988 0,0 15.923,-0.059 15.945,-0.06 5.215,-0.043 9.441,-4.467 9.441,-9.6899999" />















</svg>