<?xml version="1.0" encoding="UTF-8"?>
<!DOCTYPE svg  PUBLIC '-//W3C//DTD SVG 1.1//EN'  'http://www.w3.org/Graphics/SVG/1.1/DTD/svg11.dtd'>
<svg width="165.67mm" height="77.411mm" clip-rule="evenodd" fill-rule="evenodd" image-rendering="optimizeQuality" shape-rendering="geometricPrecision" text-rendering="geometricPrecision" viewBox="0 0 18021 8420" xml:space="preserve" xmlns="http://www.w3.org/2000/svg">
 <defs>
  <style type="text/css">
   <![CDATA[
    .fil0 {fill:hsl(253, 90%, 98%);fill-rule:nonzero}
   ]]>
  </style>
 </defs>
  <path class="fil0" d="m0 1702h1c262-37 529-42 796-20 1378 117 2738 967 3419 1887 552 745 1192 1503 1859 1908 231 140 464 238 697 281-195-28-390-97-584-198-644-336-1275-1019-1829-1738-737-952-2145-1818-3562-1916-267-18-534-10-798 30v176c260-42 524-51 789-33 1366 95 2724 929 3434 1848 567 735 1215 1436 1888 1787 261 136 524 219 787 234-228-1-457-57-684-156-647-282-1284-908-1850-1614-765-950-2171-1799-3577-1874-263-14-527-1-787 43v176c257-47 519-60 781-46 1355 73 2710 892 3449 1809 582 725 1240 1370 1918 1666 281 122 565 186 847 171-201 22-403 2-603-52-518-139-1033-503-1518-985-171-170-340-356-504-553-794-947-2198-1780-3593-1833-261-10-521 7-776 55v178c255-51 514-70 773-60 1343 51 2697 855 3464 1770 166 199 338 389 516 565 506 502 1047 883 1597 1030 236 63 473 84 708 53-234 45-470 38-705-14-548-121-1094-485-1607-991-126-125-251-258-373-398-823-945-2224-1760-3608-1791-257-6-513 16-765 68v178c251-56 508-78 765-72 1332 29 2683 817 3479 1731 125 144 252 280 382 408 536 528 1111 909 1694 1038 259 57 519 65 777 15-257 68-515 76-773 33-577-97-1153-454-1694-988-85-84-169-172-251-263-852-943-2251-1741-3623-1750-254-1-506 24-755 80v179c248-60 502-87 757-86 1320 8 2669 780 3494 1692 86 95 172 185 258 270 567 559 1175 933 1789 1037 276 47 552 39 826-30-258 84-519 113-779 89-590-53-1182-371-1742-903-74-70-147-144-220-222-881-940-2277-1722-3638-1708-250 3-500 32-744 92v179c246-65 497-96 748-99 754-8 1520 239 2197 624l-4 8c605 343 826 870 789 1342-15 185-69 362-156 516-86 153-203 282-345 373-308 199-735 218-1204-95-58-39-115-89-167-148-119-134-209-310-241-496-31-183-4-377 110-551 39-60 90-119 153-174 186-164 394-201 582-157 114 26 221 82 312 157 91 74 165 167 213 268 74 156 86 331-3 484-8 14-17 27-25 39-66 91-158 141-254 155-97 15-199-6-283-56-11-6-22-14-35-23-74-55-121-154-131-255-5-53 0-105 17-150 16-41 41-77 77-100 55-35 137-47 252-19l38-168c-166-40-293-18-385 41-69 45-117 109-144 183-26 70-35 149-27 226 14 147 86 294 202 380 15 11 32 22 50 33 119 70 261 100 398 79 138-21 270-92 366-223 12-17 24-35 35-53 121-207 107-441 10-646-60-124-150-239-261-329-54-44-113-83-175-115l4-7-2-1c-121-70-252-132-388-185-135-53-276-97-421-133-634-158-1335-155-1901-8v180c546-152 1237-159 1862-3 93 23 185 50 274 81-79 18-157 50-234 96-109-25-218-46-326-61-110-16-220-26-329-32-447-24-868 35-1247 157v183c374-128 794-192 1241-167 102 6 207 16 313 31 56 8 113 18 170 29-55 54-103 111-142 171l-2 3c-83-11-165-19-247-24-95-6-191-8-286-6-374 8-736 70-1048 188v195c318-124 674-200 1054-209 88-2 179 0 272 5 56 3 112 8 170 15-25 63-42 127-52 191-66-5-132-9-197-10-93-2-184 0-271 6-351 23-679 104-975 226v189c297-131 630-219 988-242 86-6 172-8 258-6 61 1 123 4 186 9 1 48 6 95 14 142 3 18 6 35 10 53-62-5-124-7-185-8-96-1-190 2-279 9-361 29-695 123-993 260v193c299-148 639-250 1009-280 88-7 176-10 263-9 78 1 158 5 240 13 28 69 62 136 101 198-53-6-106-11-158-15-107-7-213-8-317-3-420 20-803 133-1137 303v197c332-184 719-307 1148-328 97-5 196-4 298 3 100 6 204 19 310 38h1l2-9c53 56 112 105 173 146 116 77 231 137 342 180-130-46-258-82-383-109-732-159-1376-13-1891 276v203c496-304 1130-467 1857-309 153 33 310 81 471 144 137 54 276 119 418 196 145 79 229-71 80-153-148-81-294-149-436-205-20-8-39-15-59-23 180 61 351 80 511 65l-1 2 1 1c30 17 54 31 73 42 29 17 54 32 73 44 98 61 197 127 298 201 132 96 237-40 103-137-102-74-203-142-304-205 53-18 103-40 152-65 134 93 270 197 406 313 26 22 55 47 87 76 145 127 269 7 113-130-27-24-57-49-90-77-120-102-240-195-360-281 36-27 69-56 102-87 159 123 319 261 479 415 34 33 69 67 103 101 192 192 320 77 122-122-35-35-70-70-106-104-161-155-322-294-482-418 26-32 50-66 72-101 131 108 261 226 391 354l91 91c35 35 64 66 89 93v1c87 95 175 182 267 260 16 14 34 29 53 44 112 91 170-83 108-134-15-12-32-26-49-41-84-72-167-153-250-244l-1-1c-36-38-67-71-93-97-31-31-62-63-93-94-142-140-284-268-427-385 18-38 34-76 49-116 116 100 231 208 346 324 28 28 56 57 84 87 26 27 54 57 84 89l4 5 7 5 32 25c352 275 662 517 1014 612 168 45 192-126 38-169-318-88-612-317-947-579l-25-19c-26-28-53-57-82-87-28-29-57-59-86-89-137-138-276-266-416-384 10-45 18-90 24-136 114 100 226 207 338 321 34 35 64 66 88 92 22 23 51 55 87 95l4 4 6 5c861 716 1639 887 2341 770 669-111 1263-483 1793-892l6 7c-210 166-443 334-691 487-240 148-494 283-757 387-185 73-120 236 72 159 270-108 531-246 777-398 271-167 523-352 747-530l7 3c-149 122-312 247-484 370-191 136-395 267-607 386-182 101-78 245 116 135 207-118 406-247 593-379 224-159 430-322 614-476 3 0 6-1 10-2l-4 3c-146 124-308 257-484 391-146 111-301 222-464 329-148 97-54 244 95 146 166-109 325-223 475-336 178-135 343-270 492-397 322-275 642-393 959-406 170-7 340 17 511 62-503-119-1019-36-1531 403-111 95-230 194-355 292-109 86-226 175-349 264-88 63 14 206 105 140 122-88 240-177 353-267 130-103 251-203 360-296 511-438 1023-485 1520-328 43 14 87 29 130 46-58-20-117-37-175-52-505-126-1022-49-1537 393-75 65-155 131-237 198-67 55-135 109-203 162-93 73 13 211 111 135 72-56 139-110 203-162 85-69 165-137 240-201 465-399 931-470 1383-357 69 17 138 39 207 64-89-29-179-51-269-67-455-78-921 21-1384 419-37 31-78 67-125 106-27 22-52 44-77 64-91 75 20 210 119 128 26-21 49-41 71-59 39-33 82-69 126-107 418-360 836-450 1243-380 99 17 198 44 296 78-126-38-254-64-382-75-390-31-787 78-1181 403-107 88 9 218 123 125 352-286 703-383 1047-355 335 27 679 154 987 373 72 52 145-44 159-67 148 103 190 58 245 5 137 106 195 62 227 1 122 100 176 51 210 12 118 108 192-10 206-31 2 2 20 21 38 42 92 104 239 16 146-95-135-160-384-354-539-472l5-3c205 154 396 311 533 452 26 27 52 55 77 85 113 133 255 33 131-112-23-28-52-59-86-93-108-111-246-231-398-351 199 151 382 305 517 446 34 35 64 69 91 101 103 125 210 232 357 328 321 210 721 274 1195 152 41-11 85-24 134-39 58-18 111-21 157-11 35 8 66 24 90 45s41 47 51 77c11 33 13 72 5 114-8 40-33 73-64 94-13 9-27 15-42 18-13 3-26 3-39 0-23-5-46-21-65-50-24-35-24-63-13-81 4-6 9-12 16-16 6-4 13-8 20-9 89-18 138-140 37-172-24-8-49-2-74 2-29 6-58 18-82 35-25 17-47 39-63 66-44 70-53 167 16 270 47 71 109 111 173 125 38 9 76 8 113 0 35-8 69-22 100-42 66-44 119-115 137-201 15-73 11-142-10-204-20-61-55-113-102-154-46-41-103-70-168-84-74-17-159-14-247 15-39 12-80 24-125 36-423 109-776 55-1056-128-283-185-497-504-636-920-4-13-9-27-13-41l1-1-1-1c-13-40-25-83-38-129-198-728-709-1519-1424-1894-141-74-290-131-446-169h-1c152-46 297-99 433-158 91 41 180 90 265 146 99 64 193 137 282 216 461 411 788 1001 914 1535 24 105 52 207 82 303 131 416 322 753 589 965 272 217 618 302 1053 209 34-7 68-16 102-25 9-1 18-3 27-4 63-11 128-27 197-49 120-24 215-51 296-73 191-53 304-84 510-11 18 6 44 20 73 39 44 30 92 73 121 125 26 46 37 100 17 161-7 22-19 45-35 69-24 37-64 56-106 60-29 3-59-2-86-14-27-11-51-30-70-54-20-27-34-63-36-107-6-119-170-170-174-27-2 97 26 176 72 237 38 51 88 88 143 111 54 23 113 32 170 27 91-8 178-53 232-135 25-37 42-73 54-109 39-114 17-217-31-302-45-79-113-142-176-185-42-28-83-49-114-60-257-90-389-54-613 8-80 22-174 48-290 71l-5 1-4 1c-57 18-114 33-169 43l-2-5c-14 4-28 8-41 12-316 46-572-55-778-246-221-206-386-517-504-869-60-179-108-371-145-565-93-483-357-1025-744-1457-74-83-155-163-241-239-48-42-97-82-148-121 93-41 186-80 279-118 53 50 105 104 156 160 64 70 124 144 180 218 289 387 479 829 537 1217 80 535 203 1101 438 1495 250 418 619 647 1182 466 161-52 278-137 357-241 73-95 113-205 126-318 13-111-1-225-37-331-48-142-134-270-249-358-38-29-82-56-131-78-110-51-245-82-376-69-137 13-270 73-369 203-28 37-53 78-73 124-80 177-59 343 18 477 45 79 109 145 183 195s158 83 242 96c141 22 284-14 387-126 9-10 18-21 26-31 62-84 81-179 68-269-13-88-58-171-123-231-9-8-19-17-29-24-76-57-181-74-274-55-50 10-97 30-136 60-42 33-74 76-89 130-14 51-13 109 9 173 46 132 192 32 162-59-8-26-9-47-4-64s15-31 30-42c18-14 41-23 65-28 48-10 100-2 134 24 6 4 11 9 16 13 36 33 60 78 67 127 7 47-3 97-36 141l-15 18c-61 66-148 86-236 73-59-9-117-33-170-68-52-35-97-82-128-136-50-88-64-199-10-319 16-35 34-66 53-91 67-88 157-128 250-137 99-10 202 14 286 53 37 17 70 37 97 58 87 67 153 165 189 274 28 83 38 171 28 256-10 83-39 164-92 234-59 78-149 143-274 183-466 150-772-41-979-388-221-370-338-915-416-1431-62-415-264-887-570-1297-60-80-123-157-190-231-35-39-71-76-109-114 496-190 988-328 1430-353 717-40 1305 226 1556 1075 69 232 64 435 9 607-50 154-141 284-257 386-117 103-260 177-411 220-201 56-416 57-606-7-60-20-124-50-188-89-146-89-287-222-375-383-85-157-119-342-55-541 18-57 45-116 82-177 128-213 314-310 505-325 116-9 235 13 343 57 109 44 207 111 283 194 117 127 180 292 141 466-3 15-8 30-13 45-36 107-108 182-194 224-88 43-191 53-286 31-13-3-26-7-40-12-87-30-161-112-200-205-21-49-31-101-28-149 2-44 16-85 44-118 32-39 85-69 162-84 113-22 107-196-25-172-125 22-213 75-271 145-52 63-78 139-82 218-4 75 12 153 42 225 57 136 170 257 306 304 18 6 37 12 57 17 133 32 277 17 401-43 125-61 230-169 281-323 6-19 12-40 17-62 53-235-29-454-184-622-94-102-214-184-346-238-133-54-279-80-422-70-243 18-479 140-639 407-43 71-75 142-97 213-80 250-38 481 68 677 104 191 269 347 438 450 74 45 151 81 224 106 223 75 475 75 708 10 175-49 340-136 477-256 138-121 247-276 306-462 37-116 56-244 49-382 99 261 214 501 385 698l1 1c43 49 89 98 138 144 50 47 102 92 155 134 282 220 627 369 972 336 52-5 102-15 149-30 207-65 373-218 482-400 108-181 161-392 141-573-5-43-13-85-26-123l-1-3c-20-59-43-114-68-164-26-50-55-97-86-138-165-218-394-309-634-293-4 0-12 1-24 2-225 21-398 123-511 255-115 135-170 303-158 453v1l1 11v1c9 81 32 158 67 229 54 108 135 201 235 265 101 65 221 99 348 87 66-6 134-25 202-57 86-42 154-107 200-183 39-64 62-136 67-208 5-74-8-150-43-219-34-69-89-131-167-179s-162-60-238-47c-54 9-104 32-144 65-42 34-73 80-87 133-47 138 124 210 168 47 5-17 16-33 31-46 17-14 40-24 65-28 37-6 79 0 117 23 47 29 81 66 101 107 20 40 27 84 24 129-3 46-18 92-42 132-29 49-73 91-129 118-49 24-97 37-143 41-86 8-168-16-238-60-72-46-131-114-171-194-26-53-43-110-50-168l-1-11c-8-106 33-227 118-327 88-102 221-181 397-197 3 0 9-1 19-1 183-12 357 57 483 223 25 33 48 70 70 112 21 42 41 88 58 139l1 3c9 28 15 57 19 87 16 144-28 316-118 466-89 149-223 274-387 325-37 12-75 20-113 23-296 28-598-105-849-300-50-39-97-80-142-122-45-43-87-87-127-132l-1-1c-153-175-259-398-352-642 57 76 123 143 196 187l1 1c69 42 153 69 236 60 88-9 171-54 233-155l1-2c74-123 58-234 0-314-25-35-59-64-95-84l-8-4c-9-6-15-10-22-15-20-13-43-28-68-47 42 24 87 42 133 54 92 25 189 24 282-2 96-27 189-82 269-166 91-97 136-224 133-347-1-56-12-112-33-163-21-52-53-100-95-140-72-68-172-111-299-111-183 1-292 90-338 201-17 42-26 86-25 130 0 44 9 87 25 127 23 53 57 98 101 130 106 78 223-65 103-140-20-12-35-32-45-54-8-19-12-40-12-62 0-21 4-42 12-63 23-54 80-97 182-97 78 0 137 24 178 62 23 22 40 48 52 78 13 31 19 65 20 100 2 80-27 163-87 226-58 61-123 100-191 120-63 18-129 18-191 2-63-17-124-51-177-101-66-63-120-151-154-263-23-79-48-155-74-227-281-781-745-1281-1335-1532-586-249-1293-250-2065-32-102 29-203 61-305 96-223 77-459 141-704 189 256-168 436-402 539-657 79-195 114-403 105-605-10-204-64-401-163-574-217-379-645-638-1280-575-85 8-173 29-258 62-194 74-381 207-511 384-133 180-209 406-180 663 10 88 32 179 69 272 115 293 329 458 565 522 139 38 287 40 426 11 139-28 271-86 379-168 179-136 294-337 280-578-1-23-4-44-7-64-26-161-112-287-226-371-112-83-252-125-388-119-21 1-40 3-59 5-141 21-271 118-349 241-42 66-69 140-77 215-8 78 5 158 47 230 42 74 112 138 218 184 154 67 194-108 79-154-74-29-121-69-146-114-22-38-28-81-24-126 5-48 23-96 51-141 53-84 139-151 230-164 15-2 28-4 41-4 97-4 197 25 276 84 78 58 138 146 156 258 3 16 4 32 5 47 11 178-77 329-213 432-88 67-195 114-309 137-113 23-234 21-347-9-186-50-354-181-447-416-31-79-50-155-58-227-24-209 39-393 148-541 111-151 270-264 435-327 72-27 144-45 214-52 556-55 926 165 1111 487 85 148 132 319 140 495 8 178-22 361-92 533-178 437-610 800-1299 818v8c-50 1-99 2-149 2-119 0-240-5-362-13-54-4-109-9-163-14 17-33 29-71 35-114 5-37 6-78 0-122-12-100-69-180-146-231-48-31-105-51-163-57-59-5-120 4-176 31-65 31-124 85-165 167-68 135 107 176 155 80 23-45 53-74 86-89 28-13 58-18 86-15 29 3 58 13 83 29 36 23 62 60 67 104 3 29 3 55 0 78-9 63-43 106-87 134-49 32-110 48-163 53-35 4-64 3-83 0-215-34-301-115-447-252-62-58-133-125-229-204-51-52-102-98-154-138-8-6-15-12-23-18-26-24-52-48-78-70-344-289-690-378-1028-315-332 62-652 270-954 578-70 72-140 149-208 230-350 414-903 783-1495 929-114 28-230 48-347 58-101 9-202 10-301 4-95-118-200-233-315-346 155 40 312 60 470 62 803 8 1611-452 2112-1005 41-45 82-88 123-128 310-304 641-486 975-515 330-30 668 90 995 387 32 29 64 59 94 91 66 67 140 110 213 131 64 18 128 19 186 5 60-14 115-44 160-88 46-45 81-105 100-177 22-84 8-172-32-243-18-33-42-62-70-85-29-24-63-43-101-53-64-18-136-12-209 29-107 59-143 149-135 232 3 31 13 61 27 88 15 27 34 51 57 70 60 56 212-23 109-133-6-5-11-11-14-17s-6-14-7-22c-2-21 11-46 47-66 31-17 58-20 81-14 12 3 24 10 34 19 12 10 22 22 29 36 18 33 25 74 15 114-11 41-30 74-55 98-23 22-50 37-80 45-31 7-65 7-100-3-45-13-91-40-134-84-34-35-68-68-102-98-366-333-749-466-1128-432-375 34-742 232-1080 563-44 43-88 88-130 135-57 63-119 125-184 185 37-120 47-243 34-361-14-128-56-250-119-356-64-107-150-199-253-264-226-143-529-160-848 57-44 30-85 67-121 109-82 97-143 223-162 358-16 115-1 235 57 349-191-198-400-392-624-577-126-104-235 29-114 129 335 278 637 574 893 877 53 64 105 127 154 191 29 38 57 75 84 113-27 10-54 19-81 28-45-55-92-110-141-167-62-71-129-144-201-218-322-335-694-652-1096-937-178-126-282 11-109 134 398 281 764 593 1081 922 65 68 131 139 195 213 30 34 60 69 89 104-36 9-72 16-109 23-66-71-134-142-206-212-82-81-165-159-250-235-410-367-874-699-1365-978-168-95-249 57-84 151 480 273 934 597 1334 956 85 76 166 152 244 229 40 39 79 79 118 120-51 5-102 7-153 8-91-85-185-169-281-250-103-87-211-173-323-257-539-405-1139-742-1751-985-156-62-212 102-55 164 597 238 1181 566 1704 959 106 80 211 163 315 251 40 34 80 68 119 102-68-9-137-23-204-40-141-37-279-93-413-170l-2 3c-750-603-1751-1070-2762-1155-270-23-541-18-808 18v175zm6163 3626c-382-232-757-588-1112-992 26-8 51-16 76-25 313 410 632 699 942 890 367 226 724 314 1051 301 247-9 477-77 679-186-535 414-1094 341-1637 11zm-1237-1137c-66-78-131-157-195-236 62-10 124-23 185-38 110-26 217-59 320-98 536-199 1012-556 1310-941 119-155 247-301 381-433 262-257 548-455 835-533 268-73 541-40 801 151 10 10 20 20 31 30l3-4c44 35 88 74 131 118l3 3 5 4c91 75 163 143 225 201 171 161 272 256 541 298 33 5 78 7 127 1 66-7 142-26 211-63 103 14 206 24 309 31 123 9 248 13 375 13 641 1 1276-110 1829-301 101-35 199-66 295-93 734-207 1402-208 1950 25 240 102 459 251 650 447-212-191-454-329-719-418-592-199-1299-156-2051 71-116 35-232 74-350 118-694 255-1538 371-2359 283-159-17-317-42-474-75-119-25-236-55-351-90-2-21-5-41-8-62-24-130-90-262-209-384-420-428-850-400-1257-148-386 239-747 683-1057 1120-225 317-591 620-1020 826-85 41-170 77-257 109-69 25-139 48-210 68zm-319-394c-71-91-141-183-209-275 61 0 122-3 182-8 124-11 249-32 373-63 628-155 1214-546 1585-984 66-79 132-153 200-221 278-283 568-475 863-529 100-19 201-21 303-6-63 7-125 19-188 36-318 86-629 300-910 575-141 138-274 291-397 450-280 361-728 696-1235 885-100 37-200 68-300 92-88 21-177 38-267 49zm3741 1172c67-120 108-242 127-364 17-113 15-226-4-334 110 22 221 41 334 55 160 21 320 35 480 41 822 33 1632-121 2256-408 812-375 1677-683 2400-675 217 2 422 34 608 102-227-74-479-97-747-82-772 43-1678 412-2501 812-244 119-523 215-823 286-59 14-118 27-177 38-50 10-99 19-146 26-241-83-511-88-768-43-65 12-131 27-197 45-64 18-127 39-187 63h-1c-240 93-449 253-653 437zm-460 86c-219 160-483 263-775 274-294 11-618-70-953-276-282-173-573-435-862-805 24-10 49-20 72-31 488 584 1108 896 1623 908 106 3 207-7 301-30 277-65 543-271 613-553 5-20 9-41 12-63 23-161-22-306-105-420-83-113-205-194-337-229-18-5-38-9-58-12-142-22-295 31-406 125-59 50-108 112-138 181-31 72-42 152-24 233 18 79 63 158 143 230 137 123 232-29 125-120-57-48-88-98-99-146-10-43-3-86 14-126 19-44 51-85 91-118 77-64 179-102 270-87 13 2 26 5 40 9 94 25 181 83 240 162 58 79 89 180 73 292-2 14-5 29-9 46-43 172-172 288-333 346-104 37-222 50-338 38s-231-49-330-112c-163-103-286-278-304-528-5-71-3-136 7-196 32-207 144-355 290-454 150-102 335-153 504-162 74-4 144-1 207 10 197 33 388 135 540 281 115 109 209 243 267 390 123 312 2 678-360 943zm534-971l-12-33c-30-75-68-148-112-216 82 25 165 48 248 69 178 44 359 77 541 100 932 117 1876-34 2617-356 817-358 1661-612 2363-555 244 20 472 78 674 185-239-112-510-162-802-165-753-8-1642 307-2473 691-601 276-1382 425-2177 392-155-6-310-19-465-40-134-18-269-41-403-71zm-344-507c-174-158-388-269-611-307-75-13-159-17-245-12-197 11-413 71-590 192-9 6-18 13-27 19-20-17-40-34-59-51-16-15-33-30-49-46 21-27 41-54 60-81 299-422 646-850 1007-1074 339-210 695-234 1042 120 93 95 144 195 162 292 16 87 6 173-22 252-29 80-78 153-139 213-81 80-184 136-290 154-34 6-72 8-113 5-93-5-194-33-278-88-79-52-141-131-161-240-6-33-9-68-7-106 5-132 67-225 151-279 52-33 112-53 174-60 62-6 125 0 182 20 84 30 152 89 177 176 2 9 4 16 5 23 10 55-4 104-31 143-28 40-70 68-117 81-7 2-14 3-20 4-42 7-92-12-130-43-20-16-36-35-45-56-8-17-11-34-8-51 30-165-153-151-170-35-11 55-2 109 21 158 21 45 54 86 94 118 74 61 175 95 268 80 13-2 26-5 37-8 84-22 161-75 212-147 52-73 78-167 60-271-2-14-6-27-9-40-42-149-153-248-289-296-80-28-170-38-257-29-88 9-174 38-249 86-128 82-221 220-229 415-2 52 1 100 10 144 30 162 122 278 238 355 111 74 245 111 365 118 24 1 48 2 71 1 162 58 327 106 495 145 174 40 351 71 528 92 910 108 1846-29 2577-330 233-96 465-181 694-251 646-197 1266-276 1788-154 202 48 390 126 559 241-244-147-525-226-829-250-733-59-1605 201-2445 569-715 311-1627 457-2527 344-174-22-348-54-521-96-172-42-342-95-507-158zm-1603 8c-16 17-31 35-46 54-13-12-26-24-40-36-17-16-35-32-52-49 16-17 32-33 47-50 15 14 30 29 46 43 15 14 30 26 44 39zm-136 203c-11 24-21 48-30 74-19-16-38-33-57-51-31-28-61-58-93-89 18-16 37-32 55-49 20 20 40 38 60 57 22 20 43 39 65 58zm-74 262c-4 32-6 65-7 99-37-29-73-60-110-93-60-53-121-113-184-179 21-15 41-30 61-46 37 38 74 73 111 107 43 40 86 77 129 112zm13 328c8 41 19 80 32 118-58-36-117-78-176-124-123-96-250-213-379-354 22-14 44-27 66-41 71 76 143 145 213 208 83 74 165 139 244 194zm202 402c36 39 75 73 116 104-359-114-740-364-1065-741 24-12 47-24 71-37 146 162 288 295 427 403 154 119 304 208 452 272zm1988 318c192-173 386-320 600-404l1-1c55-21 112-41 171-57 58-16 118-30 181-41 309-54 637-29 887 136 33 22 63 47 90 74 123 124 186 298 199 473 13 176-25 349-103 470-17 26-35 49-55 68l-3 3c-37 37-75 68-113 96-38 27-75 49-112 67-185 88-371 66-528-31-6-4-12-8-16-10-149-98-233-231-265-363-31-129-13-257 42-347l5-8c32-49 73-92 120-126 71-52 154-84 238-91 82-7 165 11 238 59 39 26 75 60 108 104 37 50 57 108 62 165 4 48-4 95-21 138-17 41-43 76-79 102s-82 44-137 47c-45 3-85-11-115-35-20-16-36-35-45-56-8-19-11-38-7-56 34-170-144-177-170-37-11 54-4 109 18 159 21 48 55 92 99 126 61 47 142 77 233 71 91-5 167-35 228-80 62-45 107-106 136-174 28-67 39-142 34-216-7-90-38-180-96-257-46-61-98-110-154-147-108-71-229-97-348-88-116 9-230 53-326 124-60 44-113 99-156 162-54 21-108 44-161 70-24 11-47 23-70 36-24-63-65-109-114-142-69-46-155-63-235-58h-3c-84 5-173 33-258 74zm2053-413c-24-24-49-47-77-67 112 4 222 20 328 46 141 34 277 87 406 154 384 201 706 532 946 909l-4 3c209 327 180 642 37 860-56 86-129 157-212 208-82 51-172 82-264 89-201 15-413-88-561-361-18-34-33-72-42-112-23-94-21-201 12-298 32-93 94-177 192-229 35-18 74-33 118-43 129-29 235 6 312 72 47 41 84 94 108 152s36 121 33 180c-4 88-41 170-118 216-5 3-12 7-21 11-50 24-102 24-146 8-46-17-86-50-111-91-4-6-7-12-10-18-19-39-16-91 3-136 10-23 24-43 40-58 14-12 30-20 47-21 21-2 45 5 73 24 64 41 205-83 72-158-56-31-110-43-161-39-56 4-105 27-145 61-37 32-67 74-86 121-37 87-41 193 0 279 6 12 12 23 18 34 46 75 119 135 203 165 86 31 184 31 278-13 11-5 23-12 36-20 131-79 194-212 200-354 4-85-12-173-47-255-34-82-87-158-155-217-58-50-126-89-204-110l5-7-1-1-30-22c96-61 111-119-33-253-50-46-99-90-149-130-250-204-510-347-775-431-32-53-70-103-115-148zm236 478c-7-37-15-75-26-111 194 79 385 194 571 346 48 39 95 80 140 122 23 21 46 43 68 66l-16-12c-244-183-477-357-738-411zm-62 580l4-10c52 21 104 42 154 66 56 26 111 53 166 83-61-30-123-59-186-85-46-19-92-37-137-53zm56-175l2-11c64 27 127 57 191 89 54 27 107 56 161 87-60-32-121-63-181-90-59-27-117-52-174-74zm22-190v-33c188 53 373 183 565 326-106-67-212-127-318-180-83-42-165-80-247-113zm-176 526l8-10c55 19 109 39 163 62s110 48 166 76v1c-69-31-137-60-204-85-44-16-88-31-132-44zm-166 150c5-4 11-8 16-12 75 18 149 42 224 69 74 27 148 58 220 92-105-45-210-84-316-114-48-14-97-26-145-36zm-567 149c94 16 191 12 289-14v2c126 7 252 30 378 66 122 35 244 81 365 138v3c-291-117-585-187-882-175-260 10-520 83-781 242 3-5 5-10 8-15 2-4 5-9 7-13 101-64 202-115 303-154 104-40 208-66 311-81zm-290-117l6 4c-30 9-60 20-90 32-63 24-127 53-190 86 0-7 0-14-1-21 39-22 79-42 119-60 45-21 91-39 136-55 7 5 14 10 22 14zm-291-331c3 7 6 13 9 20-21 10-42 20-62 30-25 13-51 27-76 41-4-4-8-9-12-13 22-13 44-27 67-39 25-14 49-26 73-39zm106 167c5 6 11 13 16 19-21 9-41 17-62 27-29 13-58 28-88 43-2-6-5-12-7-17 21-12 42-23 63-34 26-13 53-26 79-37zm-167-575c-1 9-3 18-4 27-41 19-82 40-123 62 2-8 3-16 4-24 41-24 82-46 123-66zm2 219c1 7 3 15 4 22-35 17-70 35-104 54-42 23-84 49-127 77-4-2-9-5-13-7 40-28 80-54 120-78s80-47 121-68zm-1046-27c16-16 32-33 48-49l1-1c16-17 36-36 57-55s44-38 66-56c118-91 263-170 388-178h2c46-2 92 6 127 29 31 21 54 57 59 115v3c4 61-17 97-47 112-14 7-30 11-47 11s-35-3-50-10c-36-86-226-154-193 48-37 11-76 27-118 48 15-13 29-24 43-34 91-64-10-213-122-127-67 51-131 120-182 179l-34-33zm545 114c20-3 39-6 56-8l-11 8c-15-1-30-1-45-1zm-5004-439c196 159 377 327 540 501 75 80 151 156 228 230 589 559 1216 894 1848 951 635 57 1270-167 1868-726 56-52 112-108 167-166 79-84 167-136 253-160 70-19 139-21 203-6 63 15 121 46 169 92 51 49 92 115 116 197 25 84 13 172-23 242-16 31-37 58-62 79-24 21-51 36-81 44-53 15-116 8-186-29-90-48-122-114-118-173 1-22 7-43 17-62 9-18 22-35 38-48 20-17 46-34 72-27 114 31 203-150 1-175-96-12-202 74-272 129-471 367-1030 734-1662 849-660 120-1406-34-2226-752-127-143-256-278-387-403-129-123-260-238-395-342-28-82-65-164-109-243zm4753 1133c1 4 1 8 2 12-519 403-1099 772-1744 880-654 109-1383-53-2195-726-22-24-51-56-87-94-35-37-65-68-90-95-148-152-298-291-449-418-1-57-6-115-14-172 70 60 140 124 209 190 130 124 257 257 382 398l5 5 3 3c869 762 1667 925 2376 795 607-111 1143-435 1602-779zm-2392-4568c29 262-85 555-417 746l3 5c-98 57-199 108-303 153-36-51-74-102-112-152-51-66-104-132-159-197-19-22-38-45-57-67 129 82 266 97 391 68 87-20 168-63 235-119s121-127 156-204c58-130 61-278-20-410-8-13-16-25-23-34-64-85-151-131-241-144-88-13-179 6-254 51-11 7-21 14-31 21-75 56-119 152-125 247-3 50 4 102 23 148 20 50 54 93 102 124 118 61 212-62 91-146-14-9-25-24-32-41-8-21-12-45-10-71 3-49 23-96 57-122 6-4 11-8 17-11 41-25 91-35 140-28 47 7 92 31 126 76 5 7 10 14 14 19 48 78 44 168 9 248-24 54-62 103-110 143-47 40-104 70-164 84-98 23-208 3-309-84-36-30-64-62-86-94-64-93-81-197-68-295 14-101 60-197 123-270 27-32 57-59 87-80 253-173 488-163 659-55 79 50 145 121 195 205 50 85 84 183 95 286zm2829 1164c12-33 22-67 29-102 108 32 217 59 327 82 162 34 326 60 492 78 847 91 1719-29 2436-292 114-42 228-80 340-114 720-217 1390-260 1946-73 248 83 473 213 670 394-206-167-441-283-696-355-575-162-1255-97-1966 118-171 52-345 113-521 181-661 257-1477 382-2282 314-158-13-314-34-466-62-117-21-233-47-348-78 16-29 29-60 41-92zm-180 277c12-11 23-23 34-36 140 39 282 72 425 98 161 29 323 51 483 64 831 70 1675-59 2359-326 170-66 339-126 508-177 682-206 1329-270 1870-117 232 65 445 171 632 323-196-140-416-234-654-290-554-130-1204-49-1877 157-235 72-473 159-710 257-706 290-1610 422-2492 317-172-20-342-49-509-88-79-18-157-38-234-61 60-33 115-75 164-123zm2714 1024c102-49 205-97 309-145 74 52 146 109 215 169 78 69 153 144 225 224 366 407 614 918 702 1372 38 200 88 398 151 588 127 378 307 715 551 943 48 45 99 85 151 121-97-35-186-86-267-150-237-188-409-496-530-880-29-93-55-190-78-290v-1c-134-565-479-1191-969-1626-96-85-197-163-303-232-51-33-104-64-158-93zm4275 70c-7-22-14-45-21-66l45-13c21 85 52 190 96 273 59 111 188-11 151-82-8-15-16-32-23-50 28 38 56 71 83 98-11 7-22 16-32 26-108 105 62 200 138 116 10-11 29-9 45-8 92 8 123 91 77 169l-1 1c-30 49-67 71-104 75-42 4-88-11-127-35h-1c-108-67-202-206-266-344-13-27-24-55-34-81-10-27-19-53-26-76v-1zm-3415 2372c15-23 29-47 42-72 68 44 128 88 180 131 18 15 31 26 41 34l4 3c20 59 41 117 64 173-105-87-219-175-336-261l6-9zm108-234c10-33 17-67 23-102 19 50 36 101 51 150-24-16-49-32-74-48zm-10455 963c-42-11-84-20-125-28-73-15-146-26-219-35-329-38-636-12-918 61-156 41-105 207 39 170 264-69 552-95 863-58 66 8 135 19 205 33 35 7 71 15 106 23 178 43 226-122 50-166z"/>
</svg>
